<svg xmlns="http://www.w3.org/2000/svg" xmlns:xlink="http://www.w3.org/1999/xlink" width="2000" zoomAndPan="magnify" viewBox="0 0 1500 1499.999933" height="2000" preserveAspectRatio="xMidYMid meet" version="1.0"><defs><g/><clipPath id="54c3a769a1"><path d="M 700 780 L 755 780 L 755 834.328125 L 700 834.328125 Z M 700 780 " clip-rule="nonzero"/></clipPath><clipPath id="300b21d4c3"><path d="M 535.734375 613 L 564 613 L 564 642 L 535.734375 642 Z M 535.734375 613 " clip-rule="nonzero"/></clipPath><clipPath id="0aca8a7905"><path d="M 745 383.792969 L 800 383.792969 L 800 438 L 745 438 Z M 745 383.792969 " clip-rule="nonzero"/></clipPath><clipPath id="725fd4d004"><path d="M 936 576 L 963.984375 576 L 963.984375 604 L 936 604 Z M 936 576 " clip-rule="nonzero"/></clipPath><clipPath id="58ee1a4c1c"><rect x="0" width="442" y="0" height="202"/></clipPath><clipPath id="349f496572"><rect x="0" width="736" y="0" height="67"/></clipPath></defs><!-- background removed for transparent dark theme --><path fill="#367f2b" d="M 839.230469 795.972656 C 839.230469 796.855469 839.1875 797.742188 839.101562 798.621094 C 839.015625 799.503906 838.886719 800.378906 838.710938 801.246094 C 838.539062 802.113281 838.324219 802.972656 838.066406 803.820312 C 837.8125 804.667969 837.511719 805.5 837.171875 806.320312 C 836.835938 807.136719 836.457031 807.9375 836.039062 808.71875 C 835.621094 809.5 835.167969 810.257812 834.675781 810.992188 C 834.183594 811.730469 833.65625 812.441406 833.09375 813.125 C 832.53125 813.808594 831.9375 814.464844 831.3125 815.089844 C 830.6875 815.71875 830.03125 816.3125 829.34375 816.871094 C 828.660156 817.433594 827.949219 817.960938 827.214844 818.453125 C 826.476562 818.945312 825.71875 819.398438 824.9375 819.816406 C 824.15625 820.234375 823.355469 820.613281 822.539062 820.953125 C 821.71875 821.292969 820.886719 821.589844 820.039062 821.847656 C 819.191406 822.101562 818.335938 822.316406 817.464844 822.492188 C 816.597656 822.664062 815.722656 822.792969 814.839844 822.878906 C 813.960938 822.96875 813.078125 823.011719 812.191406 823.011719 C 811.304688 823.011719 810.421875 822.96875 809.539062 822.878906 C 808.660156 822.792969 807.785156 822.664062 806.914062 822.492188 C 806.046875 822.316406 805.1875 822.101562 804.339844 821.847656 C 803.492188 821.589844 802.660156 821.292969 801.84375 820.953125 C 801.023438 820.613281 800.222656 820.234375 799.441406 819.816406 C 798.660156 819.398438 797.902344 818.945312 797.167969 818.453125 C 796.429688 817.960938 795.71875 817.433594 795.035156 816.871094 C 794.351562 816.3125 793.695312 815.71875 793.070312 815.089844 C 792.441406 814.464844 791.847656 813.808594 791.285156 813.125 C 790.726562 812.441406 790.199219 811.730469 789.707031 810.992188 C 789.214844 810.257812 788.757812 809.5 788.34375 808.71875 C 787.925781 807.9375 787.546875 807.136719 787.207031 806.320312 C 786.867188 805.5 786.570312 804.667969 786.3125 803.820312 C 786.054688 802.972656 785.839844 802.113281 785.667969 801.246094 C 785.496094 800.378906 785.367188 799.503906 785.277344 798.621094 C 785.191406 797.742188 785.148438 796.855469 785.148438 795.972656 C 785.148438 795.085938 785.191406 794.203125 785.277344 793.320312 C 785.367188 792.441406 785.496094 791.566406 785.667969 790.695312 C 785.839844 789.828125 786.054688 788.96875 786.3125 788.121094 C 786.570312 787.273438 786.867188 786.441406 787.207031 785.625 C 787.546875 784.804688 787.925781 784.007812 788.34375 783.226562 C 788.757812 782.445312 789.214844 781.6875 789.707031 780.949219 C 790.199219 780.214844 790.726562 779.503906 791.285156 778.816406 C 791.847656 778.132812 792.441406 777.476562 793.070312 776.851562 C 793.695312 776.226562 794.351562 775.632812 795.035156 775.070312 C 795.71875 774.507812 796.429688 773.980469 797.167969 773.488281 C 797.902344 772.996094 798.660156 772.542969 799.441406 772.125 C 800.222656 771.707031 801.023438 771.328125 801.84375 770.992188 C 802.660156 770.652344 803.492188 770.355469 804.339844 770.097656 C 805.1875 769.839844 806.046875 769.625 806.914062 769.453125 C 807.785156 769.28125 808.660156 769.148438 809.539062 769.0625 C 810.421875 768.976562 811.304688 768.933594 812.191406 768.933594 C 813.078125 768.933594 813.960938 768.976562 814.839844 769.0625 C 815.722656 769.148438 816.597656 769.28125 817.464844 769.453125 C 818.335938 769.625 819.191406 769.839844 820.039062 770.097656 C 820.886719 770.355469 821.71875 770.652344 822.539062 770.992188 C 823.355469 771.328125 824.15625 771.707031 824.9375 772.125 C 825.71875 772.542969 826.476562 772.996094 827.214844 773.488281 C 827.949219 773.980469 828.660156 774.507812 829.34375 775.070312 C 830.03125 775.632812 830.6875 776.226562 831.3125 776.851562 C 831.9375 777.476562 832.53125 778.132812 833.09375 778.816406 C 833.65625 779.503906 834.183594 780.214844 834.675781 780.949219 C 835.167969 781.6875 835.621094 782.445312 836.039062 783.226562 C 836.457031 784.007812 836.835938 784.804688 837.171875 785.625 C 837.511719 786.441406 837.8125 787.273438 838.066406 788.121094 C 838.324219 788.96875 838.539062 789.828125 838.710938 790.695312 C 838.886719 791.566406 839.015625 792.441406 839.101562 793.320312 C 839.1875 794.203125 839.230469 795.085938 839.230469 795.972656 Z M 839.230469 795.972656 " fill-opacity="1" fill-rule="nonzero"/><g clip-path="url(#54c3a769a1)"><path fill="#367f2b" d="M 754.140625 807.238281 C 754.140625 808.125 754.097656 809.007812 754.011719 809.886719 C 753.925781 810.769531 753.792969 811.644531 753.621094 812.511719 C 753.449219 813.382812 753.234375 814.238281 752.976562 815.085938 C 752.71875 815.933594 752.421875 816.765625 752.082031 817.585938 C 751.742188 818.402344 751.367188 819.203125 750.949219 819.984375 C 750.53125 820.765625 750.074219 821.523438 749.582031 822.261719 C 749.089844 822.996094 748.566406 823.707031 748.003906 824.390625 C 747.441406 825.074219 746.847656 825.730469 746.222656 826.355469 C 745.59375 826.984375 744.9375 827.578125 744.253906 828.140625 C 743.570312 828.699219 742.859375 829.226562 742.121094 829.71875 C 741.386719 830.210938 740.628906 830.667969 739.847656 831.085938 C 739.066406 831.5 738.265625 831.878906 737.449219 832.21875 C 736.628906 832.558594 735.796875 832.855469 734.949219 833.113281 C 734.101562 833.371094 733.242188 833.585938 732.375 833.757812 C 731.507812 833.929688 730.632812 834.058594 729.75 834.148438 C 728.867188 834.234375 727.984375 834.277344 727.097656 834.277344 C 726.214844 834.277344 725.332031 834.234375 724.449219 834.148438 C 723.566406 834.058594 722.691406 833.929688 721.824219 833.757812 C 720.957031 833.585938 720.097656 833.371094 719.25 833.113281 C 718.402344 832.855469 717.570312 832.558594 716.75 832.21875 C 715.933594 831.878906 715.132812 831.5 714.351562 831.085938 C 713.570312 830.667969 712.8125 830.210938 712.074219 829.71875 C 711.339844 829.226562 710.628906 828.699219 709.945312 828.140625 C 709.257812 827.578125 708.605469 826.984375 707.976562 826.355469 C 707.351562 825.730469 706.757812 825.074219 706.195312 824.390625 C 705.632812 823.707031 705.105469 822.996094 704.613281 822.261719 C 704.121094 821.523438 703.667969 820.765625 703.25 819.984375 C 702.832031 819.203125 702.453125 818.402344 702.117188 817.585938 C 701.777344 816.765625 701.480469 815.933594 701.222656 815.085938 C 700.964844 814.238281 700.75 813.382812 700.578125 812.511719 C 700.40625 811.644531 700.273438 810.769531 700.1875 809.886719 C 700.101562 809.007812 700.058594 808.125 700.058594 807.238281 C 700.058594 806.351562 700.101562 805.46875 700.1875 804.585938 C 700.273438 803.707031 700.40625 802.832031 700.578125 801.960938 C 700.75 801.09375 700.964844 800.234375 701.222656 799.390625 C 701.480469 798.542969 701.777344 797.707031 702.117188 796.890625 C 702.457031 796.070312 702.832031 795.273438 703.25 794.492188 C 703.667969 793.710938 704.121094 792.953125 704.613281 792.214844 C 705.105469 791.480469 705.632812 790.769531 706.195312 790.085938 C 706.757812 789.398438 707.351562 788.746094 707.976562 788.117188 C 708.605469 787.492188 709.257812 786.898438 709.945312 786.335938 C 710.628906 785.773438 711.339844 785.246094 712.074219 784.753906 C 712.8125 784.261719 713.570312 783.808594 714.351562 783.390625 C 715.132812 782.972656 715.933594 782.597656 716.75 782.257812 C 717.570312 781.917969 718.402344 781.621094 719.25 781.363281 C 720.097656 781.105469 720.957031 780.890625 721.824219 780.71875 C 722.691406 780.546875 723.566406 780.414062 724.449219 780.328125 C 725.332031 780.242188 726.214844 780.199219 727.097656 780.199219 C 727.984375 780.199219 728.867188 780.242188 729.75 780.328125 C 730.632812 780.414062 731.507812 780.546875 732.375 780.71875 C 733.242188 780.890625 734.101562 781.105469 734.949219 781.363281 C 735.796875 781.621094 736.628906 781.917969 737.449219 782.257812 C 738.265625 782.597656 739.066406 782.972656 739.847656 783.390625 C 740.628906 783.808594 741.386719 784.261719 742.121094 784.753906 C 742.859375 785.246094 743.570312 785.773438 744.253906 786.335938 C 744.9375 786.898438 745.59375 787.492188 746.222656 788.117188 C 746.847656 788.746094 747.441406 789.398438 748.003906 790.085938 C 748.566406 790.769531 749.089844 791.480469 749.582031 792.214844 C 750.074219 792.953125 750.53125 793.710938 750.949219 794.492188 C 751.367188 795.273438 751.742188 796.070312 752.082031 796.890625 C 752.421875 797.707031 752.71875 798.542969 752.976562 799.390625 C 753.234375 800.234375 753.449219 801.09375 753.621094 801.960938 C 753.792969 802.832031 753.925781 803.707031 754.011719 804.585938 C 754.097656 805.46875 754.140625 806.351562 754.140625 807.238281 Z M 754.140625 807.238281 " fill-opacity="1" fill-rule="nonzero"/></g><path fill="#367f2b" d="M 675.628906 785.425781 C 675.628906 786.207031 675.59375 786.984375 675.515625 787.757812 C 675.4375 788.535156 675.324219 789.304688 675.171875 790.066406 C 675.019531 790.832031 674.832031 791.585938 674.605469 792.332031 C 674.378906 793.078125 674.117188 793.8125 673.820312 794.53125 C 673.519531 795.25 673.1875 795.957031 672.820312 796.644531 C 672.453125 797.332031 672.050781 797.996094 671.621094 798.644531 C 671.1875 799.292969 670.722656 799.917969 670.226562 800.519531 C 669.734375 801.125 669.210938 801.699219 668.660156 802.25 C 668.109375 802.800781 667.53125 803.324219 666.929688 803.820312 C 666.328125 804.3125 665.703125 804.777344 665.054688 805.210938 C 664.40625 805.644531 663.738281 806.042969 663.050781 806.410156 C 662.363281 806.777344 661.660156 807.109375 660.941406 807.410156 C 660.21875 807.707031 659.488281 807.96875 658.742188 808.195312 C 657.996094 808.421875 657.242188 808.613281 656.476562 808.761719 C 655.710938 808.914062 654.941406 809.03125 654.164062 809.105469 C 653.390625 809.183594 652.613281 809.21875 651.832031 809.21875 C 651.054688 809.21875 650.277344 809.183594 649.5 809.105469 C 648.726562 809.03125 647.957031 808.914062 647.191406 808.761719 C 646.425781 808.613281 645.671875 808.421875 644.925781 808.195312 C 644.179688 807.96875 643.445312 807.707031 642.726562 807.410156 C 642.007812 807.109375 641.304688 806.777344 640.617188 806.410156 C 639.929688 806.042969 639.261719 805.644531 638.613281 805.210938 C 637.964844 804.777344 637.339844 804.3125 636.738281 803.820312 C 636.132812 803.324219 635.558594 802.800781 635.007812 802.25 C 634.457031 801.699219 633.933594 801.125 633.4375 800.519531 C 632.945312 799.917969 632.480469 799.292969 632.046875 798.644531 C 631.613281 797.996094 631.214844 797.332031 630.847656 796.644531 C 630.480469 795.957031 630.144531 795.25 629.847656 794.53125 C 629.550781 793.8125 629.289062 793.078125 629.0625 792.332031 C 628.835938 791.585938 628.644531 790.832031 628.492188 790.066406 C 628.34375 789.304688 628.226562 788.535156 628.152344 787.757812 C 628.074219 786.984375 628.035156 786.207031 628.035156 785.425781 C 628.035156 784.648438 628.074219 783.871094 628.152344 783.09375 C 628.226562 782.320312 628.34375 781.546875 628.492188 780.785156 C 628.644531 780.019531 628.835938 779.265625 629.0625 778.519531 C 629.289062 777.773438 629.550781 777.039062 629.847656 776.320312 C 630.144531 775.601562 630.480469 774.898438 630.847656 774.210938 C 631.214844 773.523438 631.613281 772.855469 632.046875 772.207031 C 632.480469 771.558594 632.945312 770.933594 633.4375 770.332031 C 633.933594 769.730469 634.457031 769.152344 635.007812 768.601562 C 635.558594 768.050781 636.132812 767.527344 636.738281 767.03125 C 637.339844 766.539062 637.964844 766.074219 638.613281 765.640625 C 639.261719 765.210938 639.929688 764.808594 640.617188 764.441406 C 641.304688 764.074219 642.007812 763.742188 642.726562 763.441406 C 643.445312 763.144531 644.179688 762.882812 644.925781 762.65625 C 645.671875 762.429688 646.425781 762.242188 647.191406 762.089844 C 647.957031 761.9375 648.726562 761.824219 649.5 761.746094 C 650.277344 761.671875 651.054688 761.632812 651.832031 761.632812 C 652.613281 761.632812 653.390625 761.671875 654.164062 761.746094 C 654.941406 761.824219 655.710938 761.9375 656.476562 762.089844 C 657.242188 762.242188 657.996094 762.429688 658.742188 762.65625 C 659.488281 762.882812 660.21875 763.144531 660.941406 763.441406 C 661.660156 763.742188 662.363281 764.074219 663.050781 764.441406 C 663.738281 764.808594 664.40625 765.210938 665.054688 765.640625 C 665.703125 766.074219 666.328125 766.539062 666.929688 767.03125 C 667.53125 767.527344 668.109375 768.050781 668.660156 768.601562 C 669.210938 769.152344 669.734375 769.730469 670.226562 770.332031 C 670.722656 770.933594 671.1875 771.558594 671.621094 772.207031 C 672.050781 772.855469 672.453125 773.523438 672.820312 774.210938 C 673.1875 774.898438 673.519531 775.601562 673.820312 776.320312 C 674.117188 777.039062 674.378906 777.773438 674.605469 778.519531 C 674.832031 779.265625 675.019531 780.019531 675.171875 780.785156 C 675.324219 781.546875 675.4375 782.320312 675.515625 783.09375 C 675.59375 783.871094 675.628906 784.648438 675.628906 785.425781 Z M 675.628906 785.425781 " fill-opacity="1" fill-rule="nonzero"/><path fill="#367f2b" d="M 616.859375 743.246094 C 616.859375 743.9375 616.824219 744.625 616.757812 745.3125 C 616.691406 746 616.589844 746.683594 616.453125 747.359375 C 616.320312 748.039062 616.152344 748.707031 615.953125 749.367188 C 615.75 750.027344 615.519531 750.679688 615.253906 751.316406 C 614.988281 751.953125 614.695312 752.578125 614.367188 753.1875 C 614.042969 753.796875 613.6875 754.386719 613.304688 754.960938 C 612.921875 755.535156 612.511719 756.089844 612.070312 756.625 C 611.632812 757.160156 611.171875 757.671875 610.683594 758.160156 C 610.191406 758.648438 609.683594 759.109375 609.148438 759.546875 C 608.613281 759.988281 608.058594 760.398438 607.484375 760.78125 C 606.910156 761.164062 606.320312 761.519531 605.710938 761.84375 C 605.101562 762.171875 604.476562 762.464844 603.839844 762.730469 C 603.199219 762.996094 602.550781 763.226562 601.890625 763.429688 C 601.230469 763.628906 600.558594 763.796875 599.882812 763.929688 C 599.203125 764.066406 598.523438 764.167969 597.835938 764.234375 C 597.148438 764.300781 596.457031 764.335938 595.765625 764.335938 C 595.078125 764.335938 594.386719 764.300781 593.699219 764.234375 C 593.011719 764.167969 592.328125 764.066406 591.652344 763.929688 C 590.972656 763.796875 590.304688 763.628906 589.644531 763.429688 C 588.984375 763.226562 588.332031 762.996094 587.695312 762.730469 C 587.058594 762.464844 586.433594 762.171875 585.824219 761.84375 C 585.214844 761.519531 584.621094 761.164062 584.046875 760.78125 C 583.472656 760.398438 582.921875 759.988281 582.386719 759.546875 C 581.851562 759.109375 581.339844 758.648438 580.851562 758.160156 C 580.363281 757.671875 579.902344 757.160156 579.460938 756.625 C 579.023438 756.089844 578.613281 755.535156 578.230469 754.960938 C 577.84375 754.386719 577.492188 753.796875 577.164062 753.1875 C 576.839844 752.578125 576.542969 751.953125 576.28125 751.316406 C 576.015625 750.679688 575.785156 750.027344 575.582031 749.367188 C 575.382812 748.707031 575.214844 748.039062 575.078125 747.359375 C 574.945312 746.683594 574.84375 746 574.777344 745.3125 C 574.707031 744.625 574.675781 743.9375 574.675781 743.246094 C 574.675781 742.554688 574.707031 741.867188 574.777344 741.179688 C 574.84375 740.492188 574.945312 739.808594 575.078125 739.132812 C 575.214844 738.453125 575.382812 737.785156 575.582031 737.125 C 575.785156 736.460938 576.015625 735.8125 576.28125 735.175781 C 576.542969 734.535156 576.839844 733.914062 577.164062 733.304688 C 577.492188 732.695312 577.84375 732.101562 578.230469 731.527344 C 578.613281 730.953125 579.023438 730.398438 579.460938 729.867188 C 579.902344 729.332031 580.363281 728.820312 580.851562 728.332031 C 581.339844 727.84375 581.851562 727.378906 582.386719 726.941406 C 582.921875 726.503906 583.472656 726.09375 584.046875 725.710938 C 584.621094 725.324219 585.214844 724.972656 585.824219 724.644531 C 586.433594 724.320312 587.058594 724.023438 587.695312 723.761719 C 588.332031 723.496094 588.984375 723.265625 589.644531 723.0625 C 590.304688 722.863281 590.972656 722.695312 591.652344 722.558594 C 592.328125 722.425781 593.011719 722.324219 593.699219 722.257812 C 594.386719 722.1875 595.078125 722.15625 595.765625 722.15625 C 596.457031 722.15625 597.148438 722.1875 597.835938 722.257812 C 598.523438 722.324219 599.203125 722.425781 599.882812 722.558594 C 600.558594 722.695312 601.230469 722.863281 601.890625 723.0625 C 602.550781 723.265625 603.199219 723.496094 603.839844 723.761719 C 604.476562 724.023438 605.101562 724.320312 605.710938 724.644531 C 606.320312 724.972656 606.910156 725.324219 607.484375 725.710938 C 608.058594 726.09375 608.613281 726.503906 609.148438 726.941406 C 609.683594 727.378906 610.191406 727.84375 610.683594 728.332031 C 611.171875 728.820312 611.632812 729.332031 612.070312 729.867188 C 612.511719 730.398438 612.921875 730.953125 613.304688 731.527344 C 613.6875 732.101562 614.042969 732.695312 614.367188 733.304688 C 614.695312 733.914062 614.988281 734.535156 615.253906 735.175781 C 615.519531 735.8125 615.75 736.460938 615.953125 737.125 C 616.152344 737.785156 616.320312 738.453125 616.453125 739.132812 C 616.589844 739.808594 616.691406 740.492188 616.757812 741.179688 C 616.824219 741.867188 616.859375 742.554688 616.859375 743.246094 Z M 616.859375 743.246094 " fill-opacity="1" fill-rule="nonzero"/><path fill="#367f2b" d="M 577.378906 686.464844 C 577.378906 687.046875 577.351562 687.632812 577.292969 688.210938 C 577.234375 688.792969 577.148438 689.371094 577.035156 689.945312 C 576.921875 690.519531 576.78125 691.085938 576.609375 691.644531 C 576.441406 692.203125 576.242188 692.753906 576.019531 693.292969 C 575.796875 693.832031 575.546875 694.359375 575.269531 694.875 C 574.996094 695.390625 574.695312 695.890625 574.371094 696.378906 C 574.046875 696.863281 573.699219 697.332031 573.328125 697.785156 C 572.957031 698.238281 572.566406 698.667969 572.152344 699.082031 C 571.738281 699.496094 571.304688 699.886719 570.851562 700.257812 C 570.402344 700.628906 569.933594 700.976562 569.445312 701.300781 C 568.960938 701.625 568.460938 701.925781 567.945312 702.203125 C 567.429688 702.476562 566.902344 702.726562 566.359375 702.949219 C 565.820312 703.175781 565.269531 703.371094 564.710938 703.539062 C 564.152344 703.710938 563.585938 703.851562 563.011719 703.964844 C 562.441406 704.082031 561.863281 704.167969 561.28125 704.222656 C 560.699219 704.28125 560.117188 704.308594 559.53125 704.308594 C 558.945312 704.308594 558.363281 704.28125 557.78125 704.222656 C 557.199219 704.167969 556.621094 704.082031 556.050781 703.964844 C 555.476562 703.851562 554.910156 703.710938 554.351562 703.539062 C 553.789062 703.371094 553.242188 703.175781 552.703125 702.949219 C 552.160156 702.726562 551.632812 702.476562 551.117188 702.203125 C 550.601562 701.925781 550.101562 701.625 549.617188 701.300781 C 549.128906 700.976562 548.660156 700.628906 548.207031 700.257812 C 547.757812 699.886719 547.324219 699.496094 546.910156 699.082031 C 546.496094 698.667969 546.105469 698.238281 545.734375 697.785156 C 545.363281 697.332031 545.015625 696.863281 544.691406 696.378906 C 544.367188 695.890625 544.066406 695.390625 543.792969 694.875 C 543.515625 694.359375 543.265625 693.832031 543.042969 693.292969 C 542.820312 692.753906 542.621094 692.203125 542.453125 691.644531 C 542.28125 691.085938 542.140625 690.519531 542.027344 689.945312 C 541.914062 689.371094 541.828125 688.792969 541.769531 688.210938 C 541.710938 687.632812 541.683594 687.046875 541.683594 686.464844 C 541.683594 685.878906 541.710938 685.296875 541.769531 684.714844 C 541.828125 684.132812 541.914062 683.554688 542.027344 682.980469 C 542.140625 682.410156 542.28125 681.84375 542.453125 681.28125 C 542.621094 680.722656 542.820312 680.175781 543.042969 679.632812 C 543.265625 679.09375 543.515625 678.566406 543.792969 678.050781 C 544.066406 677.535156 544.367188 677.035156 544.691406 676.550781 C 545.015625 676.0625 545.363281 675.59375 545.734375 675.140625 C 546.105469 674.691406 546.496094 674.257812 546.910156 673.84375 C 547.324219 673.429688 547.757812 673.039062 548.207031 672.667969 C 548.660156 672.296875 549.128906 671.949219 549.617188 671.625 C 550.101562 671.300781 550.601562 671 551.117188 670.726562 C 551.632812 670.449219 552.160156 670.199219 552.703125 669.976562 C 553.242188 669.753906 553.789062 669.554688 554.351562 669.386719 C 554.910156 669.214844 555.476562 669.074219 556.050781 668.960938 C 556.621094 668.847656 557.199219 668.761719 557.78125 668.703125 C 558.363281 668.644531 558.945312 668.617188 559.53125 668.617188 C 560.117188 668.617188 560.699219 668.644531 561.28125 668.703125 C 561.863281 668.761719 562.441406 668.847656 563.011719 668.960938 C 563.585938 669.074219 564.152344 669.214844 564.710938 669.386719 C 565.269531 669.554688 565.820312 669.753906 566.359375 669.976562 C 566.902344 670.199219 567.429688 670.449219 567.945312 670.726562 C 568.460938 671 568.960938 671.300781 569.445312 671.625 C 569.933594 671.949219 570.402344 672.296875 570.851562 672.667969 C 571.304688 673.039062 571.738281 673.429688 572.152344 673.84375 C 572.566406 674.257812 572.957031 674.691406 573.328125 675.140625 C 573.699219 675.59375 574.046875 676.0625 574.371094 676.550781 C 574.695312 677.035156 574.996094 677.535156 575.269531 678.050781 C 575.546875 678.566406 575.796875 679.09375 576.019531 679.632812 C 576.242188 680.175781 576.441406 680.722656 576.609375 681.28125 C 576.78125 681.84375 576.921875 682.410156 577.035156 682.980469 C 577.148438 683.554688 577.234375 684.132812 577.292969 684.714844 C 577.351562 685.296875 577.378906 685.878906 577.378906 686.464844 Z M 577.378906 686.464844 " fill-opacity="1" fill-rule="nonzero"/><g clip-path="url(#300b21d4c3)"><path fill="#367f2b" d="M 563.496094 627.789062 C 563.496094 628.699219 563.410156 629.601562 563.230469 630.496094 C 563.050781 631.390625 562.789062 632.257812 562.441406 633.101562 C 562.09375 633.941406 561.664062 634.742188 561.15625 635.5 C 560.652344 636.257812 560.074219 636.960938 559.429688 637.605469 C 558.785156 638.246094 558.085938 638.824219 557.328125 639.328125 C 556.570312 639.835938 555.769531 640.261719 554.929688 640.613281 C 554.085938 640.960938 553.21875 641.222656 552.324219 641.402344 C 551.429688 641.578125 550.527344 641.667969 549.617188 641.667969 C 548.703125 641.667969 547.800781 641.578125 546.90625 641.402344 C 546.015625 641.222656 545.144531 640.960938 544.304688 640.613281 C 543.460938 640.261719 542.660156 639.835938 541.902344 639.328125 C 541.144531 638.824219 540.445312 638.246094 539.800781 637.605469 C 539.15625 636.960938 538.582031 636.257812 538.074219 635.5 C 537.566406 634.742188 537.140625 633.941406 536.792969 633.101562 C 536.441406 632.257812 536.179688 631.390625 536 630.496094 C 535.824219 629.601562 535.734375 628.699219 535.734375 627.789062 C 535.734375 626.878906 535.824219 625.976562 536 625.082031 C 536.179688 624.1875 536.441406 623.320312 536.792969 622.476562 C 537.140625 621.636719 537.566406 620.835938 538.074219 620.078125 C 538.582031 619.320312 539.15625 618.617188 539.800781 617.972656 C 540.445312 617.328125 541.144531 616.753906 541.902344 616.25 C 542.660156 615.742188 543.460938 615.3125 544.304688 614.964844 C 545.144531 614.617188 546.015625 614.351562 546.90625 614.175781 C 547.800781 613.996094 548.703125 613.910156 549.617188 613.910156 C 550.527344 613.910156 551.429688 613.996094 552.324219 614.175781 C 553.21875 614.351562 554.085938 614.617188 554.929688 614.964844 C 555.769531 615.3125 556.570312 615.742188 557.328125 616.25 C 558.085938 616.753906 558.785156 617.328125 559.429688 617.972656 C 560.074219 618.617188 560.652344 619.320312 561.15625 620.078125 C 561.664062 620.835938 562.09375 621.636719 562.441406 622.476562 C 562.789062 623.320312 563.050781 624.1875 563.230469 625.082031 C 563.410156 625.976562 563.496094 626.878906 563.496094 627.789062 Z M 563.496094 627.789062 " fill-opacity="1" fill-rule="nonzero"/></g><path fill="#367f2b" d="M 566.742188 584.886719 C 566.742188 585.578125 566.675781 586.265625 566.539062 586.945312 C 566.40625 587.625 566.203125 588.28125 565.941406 588.921875 C 565.675781 589.5625 565.351562 590.167969 564.964844 590.746094 C 564.582031 591.320312 564.144531 591.855469 563.652344 592.34375 C 563.164062 592.832031 562.632812 593.269531 562.054688 593.65625 C 561.480469 594.039062 560.871094 594.363281 560.230469 594.628906 C 559.59375 594.894531 558.933594 595.09375 558.253906 595.230469 C 557.574219 595.363281 556.886719 595.433594 556.195312 595.433594 C 555.503906 595.433594 554.816406 595.363281 554.136719 595.230469 C 553.460938 595.09375 552.800781 594.894531 552.160156 594.628906 C 551.519531 594.363281 550.914062 594.039062 550.335938 593.65625 C 549.761719 593.269531 549.226562 592.832031 548.738281 592.34375 C 548.25 591.855469 547.8125 591.320312 547.425781 590.746094 C 547.042969 590.167969 546.71875 589.5625 546.453125 588.921875 C 546.1875 588.28125 545.988281 587.625 545.851562 586.945312 C 545.71875 586.265625 545.648438 585.578125 545.648438 584.886719 C 545.648438 584.195312 545.71875 583.507812 545.851562 582.828125 C 545.988281 582.152344 546.1875 581.492188 546.453125 580.851562 C 546.71875 580.210938 547.042969 579.605469 547.425781 579.027344 C 547.8125 578.453125 548.25 577.921875 548.738281 577.429688 C 549.226562 576.941406 549.761719 576.503906 550.335938 576.117188 C 550.914062 575.734375 551.519531 575.410156 552.160156 575.144531 C 552.800781 574.878906 553.460938 574.679688 554.136719 574.542969 C 554.816406 574.410156 555.503906 574.34375 556.195312 574.34375 C 556.886719 574.34375 557.574219 574.410156 558.253906 574.542969 C 558.933594 574.679688 559.59375 574.878906 560.230469 575.144531 C 560.871094 575.410156 561.480469 575.734375 562.054688 576.117188 C 562.632812 576.503906 563.164062 576.941406 563.652344 577.429688 C 564.144531 577.921875 564.582031 578.453125 564.964844 579.027344 C 565.351562 579.605469 565.675781 580.210938 565.941406 580.851562 C 566.203125 581.492188 566.40625 582.152344 566.539062 582.828125 C 566.675781 583.507812 566.742188 584.195312 566.742188 584.886719 Z M 566.742188 584.886719 " fill-opacity="1" fill-rule="nonzero"/><path fill="#367f2b" d="M 577.917969 549.917969 C 577.917969 550.347656 577.878906 550.777344 577.792969 551.199219 C 577.707031 551.625 577.582031 552.035156 577.417969 552.433594 C 577.253906 552.832031 577.050781 553.210938 576.808594 553.570312 C 576.570312 553.929688 576.296875 554.261719 575.992188 554.570312 C 575.6875 554.875 575.355469 555.148438 574.996094 555.386719 C 574.636719 555.628906 574.257812 555.828125 573.859375 555.996094 C 573.457031 556.160156 573.046875 556.285156 572.625 556.371094 C 572.199219 556.453125 571.769531 556.496094 571.339844 556.496094 C 570.90625 556.496094 570.480469 556.453125 570.054688 556.371094 C 569.632812 556.285156 569.21875 556.160156 568.820312 555.996094 C 568.421875 555.828125 568.042969 555.628906 567.683594 555.386719 C 567.324219 555.148438 566.992188 554.875 566.6875 554.570312 C 566.382812 554.261719 566.109375 553.929688 565.867188 553.570312 C 565.628906 553.210938 565.425781 552.832031 565.261719 552.433594 C 565.09375 552.035156 564.96875 551.625 564.886719 551.199219 C 564.800781 550.777344 564.757812 550.347656 564.757812 549.917969 C 564.757812 549.484375 564.800781 549.058594 564.886719 548.632812 C 564.96875 548.210938 565.09375 547.796875 565.261719 547.398438 C 565.425781 547 565.628906 546.621094 565.867188 546.261719 C 566.109375 545.902344 566.382812 545.570312 566.6875 545.265625 C 566.992188 544.957031 567.324219 544.6875 567.683594 544.445312 C 568.042969 544.207031 568.421875 544.003906 568.820312 543.835938 C 569.21875 543.671875 569.632812 543.546875 570.054688 543.464844 C 570.480469 543.378906 570.90625 543.335938 571.339844 543.335938 C 571.769531 543.335938 572.199219 543.378906 572.625 543.464844 C 573.046875 543.546875 573.457031 543.671875 573.859375 543.839844 C 574.257812 544.003906 574.636719 544.207031 574.996094 544.445312 C 575.355469 544.6875 575.6875 544.957031 575.992188 545.265625 C 576.296875 545.570312 576.570312 545.902344 576.808594 546.261719 C 577.050781 546.621094 577.253906 547 577.417969 547.398438 C 577.582031 547.796875 577.707031 548.210938 577.792969 548.632812 C 577.878906 549.058594 577.917969 549.484375 577.917969 549.917969 Z M 577.917969 549.917969 " fill-opacity="1" fill-rule="nonzero"/><path fill="#367f2b" d="M 592.433594 526.121094 C 592.433594 526.425781 592.402344 526.722656 592.34375 527.019531 C 592.285156 527.316406 592.199219 527.601562 592.082031 527.882812 C 591.964844 528.160156 591.824219 528.425781 591.65625 528.675781 C 591.488281 528.925781 591.300781 529.160156 591.085938 529.371094 C 590.871094 529.585938 590.640625 529.777344 590.390625 529.945312 C 590.136719 530.113281 589.871094 530.253906 589.59375 530.367188 C 589.316406 530.484375 589.027344 530.570312 588.730469 530.628906 C 588.4375 530.6875 588.136719 530.71875 587.835938 530.71875 C 587.53125 530.71875 587.234375 530.6875 586.9375 530.628906 C 586.640625 530.570312 586.355469 530.484375 586.074219 530.367188 C 585.796875 530.253906 585.53125 530.113281 585.28125 529.945312 C 585.03125 529.777344 584.796875 529.585938 584.585938 529.371094 C 584.371094 529.160156 584.179688 528.925781 584.011719 528.675781 C 583.84375 528.425781 583.703125 528.160156 583.585938 527.882812 C 583.472656 527.601562 583.386719 527.316406 583.324219 527.019531 C 583.265625 526.722656 583.238281 526.425781 583.238281 526.121094 C 583.238281 525.820312 583.265625 525.519531 583.324219 525.226562 C 583.386719 524.929688 583.472656 524.640625 583.585938 524.363281 C 583.703125 524.085938 583.84375 523.820312 584.011719 523.570312 C 584.179688 523.316406 584.371094 523.085938 584.585938 522.871094 C 584.796875 522.660156 585.03125 522.46875 585.28125 522.300781 C 585.53125 522.132812 585.796875 521.992188 586.074219 521.875 C 586.355469 521.761719 586.640625 521.671875 586.9375 521.613281 C 587.234375 521.554688 587.53125 521.527344 587.835938 521.527344 C 588.136719 521.527344 588.4375 521.554688 588.730469 521.613281 C 589.027344 521.671875 589.316406 521.761719 589.59375 521.875 C 589.871094 521.992188 590.136719 522.132812 590.390625 522.300781 C 590.640625 522.46875 590.871094 522.660156 591.085938 522.871094 C 591.300781 523.085938 591.488281 523.316406 591.65625 523.570312 C 591.824219 523.820312 591.964844 524.085938 592.082031 524.363281 C 592.199219 524.640625 592.285156 524.929688 592.34375 525.226562 C 592.402344 525.519531 592.433594 525.820312 592.433594 526.121094 Z M 592.433594 526.121094 " fill-opacity="1" fill-rule="nonzero"/><path fill="#a4d518" d="M 714.570312 421.933594 C 714.570312 422.816406 714.527344 423.699219 714.441406 424.582031 C 714.351562 425.464844 714.222656 426.339844 714.050781 427.207031 C 713.878906 428.074219 713.664062 428.933594 713.40625 429.78125 C 713.148438 430.628906 712.851562 431.460938 712.511719 432.277344 C 712.171875 433.097656 711.792969 433.898438 711.378906 434.679688 C 710.960938 435.460938 710.503906 436.21875 710.011719 436.953125 C 709.519531 437.691406 708.992188 438.402344 708.433594 439.085938 C 707.871094 439.769531 707.277344 440.425781 706.648438 441.050781 C 706.023438 441.675781 705.367188 442.273438 704.683594 442.832031 C 704 443.394531 703.289062 443.921875 702.550781 444.414062 C 701.816406 444.90625 701.058594 445.359375 700.277344 445.777344 C 699.496094 446.195312 698.695312 446.574219 697.875 446.914062 C 697.058594 447.25 696.226562 447.550781 695.378906 447.804688 C 694.53125 448.0625 693.671875 448.277344 692.804688 448.453125 C 691.933594 448.625 691.058594 448.753906 690.179688 448.839844 C 689.296875 448.925781 688.414062 448.972656 687.527344 448.972656 C 686.644531 448.972656 685.757812 448.925781 684.878906 448.839844 C 683.996094 448.753906 683.121094 448.625 682.253906 448.453125 C 681.382812 448.277344 680.527344 448.0625 679.679688 447.804688 C 678.832031 447.550781 678 447.25 677.179688 446.914062 C 676.363281 446.574219 675.5625 446.195312 674.78125 445.777344 C 674 445.359375 673.242188 444.90625 672.503906 444.414062 C 671.769531 443.921875 671.058594 443.394531 670.375 442.832031 C 669.6875 442.273438 669.035156 441.675781 668.40625 441.050781 C 667.78125 440.425781 667.1875 439.769531 666.625 439.085938 C 666.0625 438.402344 665.535156 437.691406 665.042969 436.953125 C 664.550781 436.21875 664.097656 435.460938 663.679688 434.679688 C 663.261719 433.898438 662.882812 433.097656 662.546875 432.277344 C 662.207031 431.460938 661.910156 430.628906 661.652344 429.78125 C 661.394531 428.933594 661.179688 428.074219 661.007812 427.207031 C 660.832031 426.339844 660.703125 425.464844 660.617188 424.582031 C 660.53125 423.699219 660.488281 422.816406 660.488281 421.933594 C 660.488281 421.046875 660.53125 420.164062 660.617188 419.28125 C 660.703125 418.398438 660.832031 417.527344 661.007812 416.65625 C 661.179688 415.789062 661.394531 414.929688 661.652344 414.082031 C 661.910156 413.234375 662.207031 412.402344 662.546875 411.585938 C 662.882812 410.765625 663.261719 409.96875 663.679688 409.1875 C 664.097656 408.40625 664.550781 407.644531 665.042969 406.910156 C 665.535156 406.171875 666.0625 405.464844 666.625 404.777344 C 667.1875 404.09375 667.78125 403.4375 668.40625 402.8125 C 669.035156 402.1875 669.6875 401.59375 670.375 401.03125 C 671.058594 400.46875 671.769531 399.941406 672.503906 399.449219 C 673.242188 398.957031 674 398.503906 674.78125 398.085938 C 675.5625 397.667969 676.363281 397.289062 677.179688 396.949219 C 678 396.613281 678.832031 396.3125 679.679688 396.058594 C 680.527344 395.800781 681.382812 395.585938 682.253906 395.414062 C 683.121094 395.238281 683.996094 395.109375 684.878906 395.023438 C 685.757812 394.9375 686.644531 394.894531 687.527344 394.894531 C 688.414062 394.894531 689.296875 394.9375 690.179688 395.023438 C 691.058594 395.109375 691.933594 395.238281 692.804688 395.414062 C 693.671875 395.585938 694.53125 395.800781 695.378906 396.058594 C 696.226562 396.3125 697.058594 396.613281 697.875 396.949219 C 698.695312 397.289062 699.496094 397.667969 700.277344 398.085938 C 701.058594 398.503906 701.816406 398.957031 702.550781 399.449219 C 703.289062 399.941406 704 400.46875 704.683594 401.03125 C 705.367188 401.59375 706.023438 402.1875 706.648438 402.8125 C 707.277344 403.4375 707.871094 404.09375 708.433594 404.777344 C 708.992188 405.464844 709.519531 406.171875 710.011719 406.910156 C 710.503906 407.644531 710.960938 408.40625 711.378906 409.1875 C 711.792969 409.96875 712.171875 410.765625 712.511719 411.585938 C 712.851562 412.402344 713.148438 413.234375 713.40625 414.082031 C 713.664062 414.929688 713.878906 415.789062 714.050781 416.65625 C 714.222656 417.527344 714.351562 418.398438 714.441406 419.28125 C 714.527344 420.164062 714.570312 421.046875 714.570312 421.933594 Z M 714.570312 421.933594 " fill-opacity="1" fill-rule="nonzero"/><g clip-path="url(#0aca8a7905)"><path fill="#a4d518" d="M 799.660156 410.664062 C 799.660156 411.550781 799.617188 412.433594 799.53125 413.316406 C 799.445312 414.195312 799.3125 415.070312 799.140625 415.941406 C 798.96875 416.808594 798.753906 417.667969 798.496094 418.515625 C 798.238281 419.363281 797.941406 420.195312 797.601562 421.011719 C 797.265625 421.832031 796.886719 422.628906 796.46875 423.410156 C 796.050781 424.191406 795.597656 424.953125 795.105469 425.6875 C 794.613281 426.425781 794.085938 427.132812 793.523438 427.820312 C 792.960938 428.503906 792.367188 429.160156 791.742188 429.785156 C 791.113281 430.410156 790.460938 431.003906 789.773438 431.566406 C 789.089844 432.128906 788.378906 432.65625 787.644531 433.148438 C 786.90625 433.640625 786.148438 434.09375 785.367188 434.511719 C 784.585938 434.929688 783.785156 435.308594 782.96875 435.644531 C 782.148438 435.984375 781.316406 436.285156 780.46875 436.539062 C 779.621094 436.796875 778.765625 437.011719 777.894531 437.183594 C 777.027344 437.359375 776.152344 437.488281 775.269531 437.574219 C 774.390625 437.660156 773.503906 437.703125 772.621094 437.703125 C 771.734375 437.703125 770.851562 437.660156 769.96875 437.574219 C 769.085938 437.488281 768.210938 437.359375 767.34375 437.183594 C 766.476562 437.011719 765.617188 436.796875 764.769531 436.539062 C 763.921875 436.285156 763.089844 435.984375 762.269531 435.644531 C 761.453125 435.308594 760.652344 434.929688 759.871094 434.511719 C 759.089844 434.09375 758.332031 433.640625 757.597656 433.148438 C 756.859375 432.65625 756.148438 432.128906 755.464844 431.566406 C 754.78125 431.003906 754.125 430.410156 753.5 429.785156 C 752.871094 429.160156 752.277344 428.503906 751.714844 427.820312 C 751.152344 427.132812 750.628906 426.425781 750.136719 425.6875 C 749.644531 424.953125 749.1875 424.191406 748.769531 423.410156 C 748.351562 422.628906 747.976562 421.832031 747.636719 421.011719 C 747.296875 420.195312 747 419.363281 746.742188 418.515625 C 746.484375 417.667969 746.269531 416.808594 746.097656 415.941406 C 745.925781 415.070312 745.792969 414.195312 745.707031 413.316406 C 745.621094 412.433594 745.578125 411.550781 745.578125 410.664062 C 745.578125 409.78125 745.621094 408.898438 745.707031 408.015625 C 745.792969 407.132812 745.925781 406.257812 746.097656 405.390625 C 746.269531 404.523438 746.484375 403.664062 746.742188 402.816406 C 747 401.96875 747.296875 401.136719 747.636719 400.316406 C 747.976562 399.5 748.351562 398.699219 748.769531 397.917969 C 749.1875 397.136719 749.644531 396.378906 750.136719 395.644531 C 750.628906 394.90625 751.152344 394.195312 751.714844 393.511719 C 752.277344 392.828125 752.871094 392.171875 753.5 391.546875 C 754.125 390.921875 754.78125 390.324219 755.464844 389.765625 C 756.148438 389.203125 756.859375 388.675781 757.597656 388.183594 C 758.332031 387.691406 759.089844 387.238281 759.871094 386.820312 C 760.652344 386.402344 761.453125 386.023438 762.269531 385.683594 C 763.089844 385.347656 763.921875 385.046875 764.769531 384.789062 C 765.617188 384.535156 766.476562 384.320312 767.34375 384.144531 C 768.210938 383.972656 769.085938 383.84375 769.96875 383.757812 C 770.851562 383.671875 771.734375 383.625 772.621094 383.625 C 773.503906 383.625 774.390625 383.671875 775.269531 383.757812 C 776.152344 383.84375 777.027344 383.972656 777.894531 384.144531 C 778.765625 384.320312 779.621094 384.535156 780.46875 384.789062 C 781.316406 385.046875 782.148438 385.347656 782.96875 385.683594 C 783.785156 386.023438 784.585938 386.402344 785.367188 386.820312 C 786.148438 387.238281 786.90625 387.691406 787.644531 388.183594 C 788.378906 388.675781 789.089844 389.203125 789.773438 389.765625 C 790.460938 390.324219 791.113281 390.921875 791.742188 391.546875 C 792.367188 392.171875 792.960938 392.828125 793.523438 393.511719 C 794.085938 394.195312 794.613281 394.90625 795.105469 395.644531 C 795.597656 396.378906 796.050781 397.136719 796.46875 397.917969 C 796.886719 398.699219 797.265625 399.5 797.601562 400.316406 C 797.941406 401.136719 798.238281 401.96875 798.496094 402.816406 C 798.753906 403.664062 798.96875 404.523438 799.140625 405.390625 C 799.3125 406.257812 799.445312 407.132812 799.53125 408.015625 C 799.617188 408.898438 799.660156 409.78125 799.660156 410.664062 Z M 799.660156 410.664062 " fill-opacity="1" fill-rule="nonzero"/></g><path fill="#a4d518" d="M 871.683594 432.476562 C 871.683594 433.257812 871.644531 434.035156 871.566406 434.808594 C 871.492188 435.585938 871.378906 436.355469 871.226562 437.121094 C 871.074219 437.882812 870.882812 438.636719 870.65625 439.382812 C 870.429688 440.128906 870.167969 440.863281 869.871094 441.582031 C 869.574219 442.304688 869.238281 443.007812 868.871094 443.695312 C 868.503906 444.382812 868.105469 445.046875 867.671875 445.695312 C 867.238281 446.34375 866.773438 446.96875 866.28125 447.570312 C 865.785156 448.175781 865.261719 448.75 864.710938 449.300781 C 864.160156 449.851562 863.585938 450.375 862.980469 450.871094 C 862.378906 451.363281 861.753906 451.828125 861.105469 452.261719 C 860.457031 452.695312 859.789062 453.09375 859.101562 453.460938 C 858.414062 453.828125 857.710938 454.160156 856.992188 454.460938 C 856.273438 454.757812 855.539062 455.019531 854.792969 455.246094 C 854.046875 455.472656 853.292969 455.664062 852.527344 455.8125 C 851.761719 455.964844 850.992188 456.082031 850.21875 456.15625 C 849.441406 456.234375 848.664062 456.269531 847.886719 456.269531 C 847.105469 456.269531 846.328125 456.234375 845.554688 456.15625 C 844.777344 456.082031 844.007812 455.964844 843.242188 455.8125 C 842.480469 455.664062 841.722656 455.472656 840.976562 455.246094 C 840.230469 455.019531 839.5 454.757812 838.777344 454.460938 C 838.058594 454.160156 837.355469 453.828125 836.667969 453.460938 C 835.980469 453.09375 835.3125 452.695312 834.664062 452.261719 C 834.015625 451.828125 833.390625 451.363281 832.789062 450.871094 C 832.1875 450.375 831.609375 449.851562 831.058594 449.300781 C 830.507812 448.75 829.984375 448.175781 829.492188 447.570312 C 828.996094 446.96875 828.53125 446.34375 828.097656 445.695312 C 827.667969 445.046875 827.265625 444.382812 826.898438 443.695312 C 826.53125 443.007812 826.199219 442.304688 825.898438 441.582031 C 825.601562 440.863281 825.339844 440.128906 825.113281 439.382812 C 824.886719 438.636719 824.699219 437.882812 824.546875 437.121094 C 824.394531 436.355469 824.28125 435.585938 824.203125 434.808594 C 824.128906 434.035156 824.089844 433.257812 824.089844 432.476562 C 824.089844 431.699219 824.128906 430.921875 824.203125 430.144531 C 824.28125 429.371094 824.394531 428.597656 824.546875 427.835938 C 824.699219 427.070312 824.886719 426.316406 825.113281 425.570312 C 825.339844 424.824219 825.601562 424.089844 825.898438 423.371094 C 826.199219 422.652344 826.53125 421.949219 826.898438 421.261719 C 827.265625 420.574219 827.667969 419.90625 828.097656 419.257812 C 828.53125 418.609375 828.996094 417.984375 829.492188 417.382812 C 829.984375 416.78125 830.507812 416.203125 831.058594 415.652344 C 831.609375 415.101562 832.1875 414.578125 832.789062 414.082031 C 833.390625 413.589844 834.015625 413.125 834.664062 412.691406 C 835.3125 412.261719 835.980469 411.859375 836.667969 411.492188 C 837.355469 411.125 838.058594 410.792969 838.777344 410.492188 C 839.5 410.195312 840.230469 409.933594 840.976562 409.707031 C 841.722656 409.480469 842.480469 409.292969 843.242188 409.140625 C 844.007812 408.988281 844.777344 408.875 845.554688 408.796875 C 846.328125 408.722656 847.105469 408.683594 847.886719 408.683594 C 848.664062 408.683594 849.441406 408.722656 850.21875 408.796875 C 850.992188 408.875 851.761719 408.988281 852.527344 409.140625 C 853.292969 409.292969 854.046875 409.480469 854.792969 409.707031 C 855.539062 409.933594 856.273438 410.195312 856.992188 410.492188 C 857.710938 410.792969 858.414062 411.125 859.101562 411.492188 C 859.789062 411.859375 860.457031 412.261719 861.105469 412.691406 C 861.753906 413.125 862.378906 413.589844 862.980469 414.082031 C 863.585938 414.578125 864.160156 415.101562 864.710938 415.652344 C 865.261719 416.203125 865.785156 416.78125 866.28125 417.382812 C 866.773438 417.984375 867.238281 418.609375 867.671875 419.257812 C 868.105469 419.90625 868.503906 420.574219 868.871094 421.261719 C 869.238281 421.949219 869.574219 422.652344 869.871094 423.371094 C 870.167969 424.089844 870.429688 424.824219 870.65625 425.570312 C 870.882812 426.316406 871.074219 427.070312 871.226562 427.835938 C 871.378906 428.597656 871.492188 429.371094 871.566406 430.144531 C 871.644531 430.921875 871.683594 431.699219 871.683594 432.476562 Z M 871.683594 432.476562 " fill-opacity="1" fill-rule="nonzero"/><path fill="#a4d518" d="M 925.042969 474.65625 C 925.042969 475.347656 925.011719 476.039062 924.941406 476.726562 C 924.875 477.414062 924.773438 478.09375 924.640625 478.773438 C 924.503906 479.449219 924.335938 480.121094 924.136719 480.78125 C 923.9375 481.441406 923.703125 482.089844 923.4375 482.730469 C 923.175781 483.367188 922.878906 483.992188 922.554688 484.601562 C 922.226562 485.210938 921.875 485.800781 921.488281 486.375 C 921.105469 486.949219 920.695312 487.503906 920.257812 488.039062 C 919.820312 488.570312 919.355469 489.082031 918.867188 489.570312 C 918.378906 490.058594 917.867188 490.523438 917.332031 490.960938 C 916.800781 491.398438 916.246094 491.808594 915.671875 492.195312 C 915.097656 492.578125 914.503906 492.933594 913.894531 493.257812 C 913.285156 493.582031 912.660156 493.878906 912.023438 494.144531 C 911.386719 494.40625 910.734375 494.640625 910.074219 494.839844 C 909.414062 495.039062 908.746094 495.207031 908.066406 495.34375 C 907.390625 495.476562 906.707031 495.578125 906.019531 495.648438 C 905.332031 495.714844 904.644531 495.75 903.953125 495.75 C 903.261719 495.75 902.570312 495.714844 901.882812 495.648438 C 901.195312 495.578125 900.515625 495.476562 899.835938 495.34375 C 899.160156 495.207031 898.488281 495.039062 897.828125 494.839844 C 897.167969 494.640625 896.519531 494.40625 895.878906 494.144531 C 895.242188 493.878906 894.617188 493.582031 894.007812 493.257812 C 893.398438 492.933594 892.808594 492.578125 892.234375 492.195312 C 891.660156 491.808594 891.105469 491.398438 890.570312 490.960938 C 890.035156 490.523438 889.527344 490.058594 889.039062 489.570312 C 888.546875 489.082031 888.085938 488.570312 887.648438 488.039062 C 887.207031 487.503906 886.796875 486.949219 886.414062 486.375 C 886.03125 485.800781 885.675781 485.210938 885.351562 484.601562 C 885.023438 483.992188 884.730469 483.367188 884.464844 482.730469 C 884.199219 482.089844 883.96875 481.441406 883.769531 480.78125 C 883.566406 480.121094 883.398438 479.449219 883.265625 478.773438 C 883.128906 478.09375 883.027344 477.414062 882.960938 476.726562 C 882.894531 476.039062 882.859375 475.347656 882.859375 474.65625 C 882.859375 473.96875 882.894531 473.277344 882.960938 472.589844 C 883.027344 471.902344 883.128906 471.222656 883.265625 470.542969 C 883.398438 469.867188 883.566406 469.195312 883.769531 468.535156 C 883.96875 467.875 884.199219 467.226562 884.464844 466.585938 C 884.730469 465.949219 885.023438 465.324219 885.351562 464.714844 C 885.675781 464.105469 886.03125 463.515625 886.414062 462.941406 C 886.796875 462.367188 887.207031 461.8125 887.648438 461.277344 C 888.085938 460.746094 888.546875 460.234375 889.039062 459.746094 C 889.527344 459.257812 890.035156 458.792969 890.570312 458.355469 C 891.105469 457.917969 891.660156 457.503906 892.234375 457.121094 C 892.808594 456.738281 893.398438 456.382812 894.007812 456.058594 C 894.617188 455.730469 895.242188 455.4375 895.878906 455.171875 C 896.519531 454.910156 897.167969 454.675781 897.828125 454.476562 C 898.488281 454.273438 899.160156 454.109375 899.835938 453.972656 C 900.515625 453.839844 901.195312 453.738281 901.882812 453.667969 C 902.570312 453.601562 903.261719 453.566406 903.953125 453.566406 C 904.644531 453.566406 905.332031 453.601562 906.019531 453.667969 C 906.707031 453.738281 907.390625 453.839844 908.066406 453.972656 C 908.746094 454.109375 909.414062 454.273438 910.074219 454.476562 C 910.734375 454.675781 911.386719 454.910156 912.023438 455.171875 C 912.660156 455.4375 913.285156 455.730469 913.894531 456.058594 C 914.503906 456.382812 915.097656 456.738281 915.671875 457.121094 C 916.246094 457.503906 916.800781 457.917969 917.332031 458.355469 C 917.867188 458.792969 918.378906 459.257812 918.867188 459.746094 C 919.355469 460.234375 919.820312 460.746094 920.257812 461.277344 C 920.695312 461.8125 921.105469 462.367188 921.488281 462.941406 C 921.875 463.515625 922.226562 464.105469 922.554688 464.714844 C 922.878906 465.324219 923.175781 465.949219 923.4375 466.585938 C 923.703125 467.226562 923.9375 467.875 924.136719 468.535156 C 924.335938 469.195312 924.503906 469.867188 924.640625 470.542969 C 924.773438 471.222656 924.875 471.902344 924.941406 472.589844 C 925.011719 473.277344 925.042969 473.96875 925.042969 474.65625 Z M 925.042969 474.65625 " fill-opacity="1" fill-rule="nonzero"/><path fill="#a4d518" d="M 958.125 531.441406 C 958.125 532.023438 958.097656 532.609375 958.039062 533.1875 C 957.980469 533.769531 957.898438 534.347656 957.78125 534.921875 C 957.667969 535.496094 957.527344 536.0625 957.355469 536.621094 C 957.1875 537.179688 956.992188 537.730469 956.765625 538.269531 C 956.542969 538.808594 956.292969 539.335938 956.019531 539.851562 C 955.742188 540.367188 955.441406 540.867188 955.117188 541.355469 C 954.792969 541.839844 954.445312 542.308594 954.074219 542.761719 C 953.703125 543.214844 953.3125 543.644531 952.898438 544.058594 C 952.484375 544.472656 952.050781 544.863281 951.601562 545.234375 C 951.148438 545.605469 950.679688 545.953125 950.195312 546.277344 C 949.707031 546.601562 949.207031 546.902344 948.691406 547.179688 C 948.175781 547.453125 947.648438 547.703125 947.109375 547.925781 C 946.566406 548.152344 946.019531 548.347656 945.457031 548.515625 C 944.898438 548.6875 944.332031 548.828125 943.761719 548.941406 C 943.1875 549.058594 942.609375 549.140625 942.027344 549.199219 C 941.445312 549.257812 940.863281 549.285156 940.277344 549.285156 C 939.695312 549.285156 939.109375 549.257812 938.527344 549.199219 C 937.945312 549.140625 937.371094 549.058594 936.796875 548.941406 C 936.222656 548.828125 935.65625 548.6875 935.097656 548.515625 C 934.539062 548.347656 933.988281 548.152344 933.449219 547.925781 C 932.90625 547.703125 932.378906 547.453125 931.863281 547.179688 C 931.347656 546.902344 930.847656 546.601562 930.363281 546.277344 C 929.875 545.953125 929.40625 545.605469 928.957031 545.234375 C 928.503906 544.863281 928.070312 544.472656 927.65625 544.058594 C 927.246094 543.644531 926.851562 543.214844 926.480469 542.761719 C 926.109375 542.308594 925.761719 541.839844 925.4375 541.355469 C 925.113281 540.867188 924.8125 540.367188 924.539062 539.851562 C 924.261719 539.335938 924.011719 538.808594 923.789062 538.269531 C 923.566406 537.730469 923.367188 537.179688 923.199219 536.621094 C 923.027344 536.0625 922.886719 535.496094 922.773438 534.921875 C 922.660156 534.347656 922.574219 533.769531 922.515625 533.1875 C 922.460938 532.609375 922.429688 532.023438 922.429688 531.441406 C 922.429688 530.855469 922.460938 530.273438 922.515625 529.691406 C 922.574219 529.109375 922.660156 528.53125 922.773438 527.957031 C 922.886719 527.386719 923.027344 526.820312 923.199219 526.257812 C 923.367188 525.699219 923.566406 525.152344 923.789062 524.609375 C 924.011719 524.070312 924.261719 523.542969 924.539062 523.027344 C 924.8125 522.511719 925.113281 522.011719 925.4375 521.523438 C 925.761719 521.039062 926.109375 520.570312 926.480469 520.117188 C 926.851562 519.667969 927.246094 519.234375 927.65625 518.820312 C 928.070312 518.40625 928.503906 518.015625 928.957031 517.644531 C 929.40625 517.273438 929.875 516.925781 930.363281 516.601562 C 930.847656 516.277344 931.347656 515.976562 931.863281 515.703125 C 932.378906 515.425781 932.90625 515.175781 933.449219 514.953125 C 933.988281 514.730469 934.539062 514.53125 935.097656 514.363281 C 935.65625 514.191406 936.222656 514.050781 936.796875 513.9375 C 937.371094 513.824219 937.945312 513.738281 938.527344 513.679688 C 939.109375 513.621094 939.695312 513.59375 940.277344 513.59375 C 940.863281 513.59375 941.445312 513.621094 942.027344 513.679688 C 942.609375 513.738281 943.1875 513.824219 943.757812 513.9375 C 944.332031 514.050781 944.898438 514.191406 945.457031 514.363281 C 946.019531 514.53125 946.566406 514.730469 947.109375 514.953125 C 947.648438 515.175781 948.175781 515.425781 948.691406 515.703125 C 949.207031 515.976562 949.707031 516.277344 950.195312 516.601562 C 950.679688 516.925781 951.148438 517.273438 951.601562 517.644531 C 952.050781 518.015625 952.484375 518.40625 952.898438 518.820312 C 953.3125 519.234375 953.703125 519.667969 954.074219 520.117188 C 954.445312 520.570312 954.792969 521.039062 955.117188 521.523438 C 955.441406 522.011719 955.742188 522.511719 956.019531 523.027344 C 956.292969 523.542969 956.542969 524.070312 956.765625 524.609375 C 956.992188 525.152344 957.1875 525.699219 957.355469 526.257812 C 957.527344 526.820312 957.667969 527.386719 957.78125 527.957031 C 957.898438 528.53125 957.980469 529.109375 958.039062 529.691406 C 958.097656 530.273438 958.125 530.855469 958.125 531.441406 Z M 958.125 531.441406 " fill-opacity="1" fill-rule="nonzero"/><g clip-path="url(#725fd4d004)"><path fill="#a4d518" d="M 963.984375 590.113281 C 963.984375 591.027344 963.894531 591.929688 963.71875 592.824219 C 963.539062 593.714844 963.277344 594.585938 962.929688 595.425781 C 962.578125 596.269531 962.152344 597.066406 961.644531 597.824219 C 961.136719 598.582031 960.5625 599.285156 959.917969 599.929688 C 959.273438 600.574219 958.574219 601.148438 957.816406 601.65625 C 957.058594 602.160156 956.257812 602.589844 955.414062 602.9375 C 954.574219 603.285156 953.707031 603.550781 952.8125 603.726562 C 951.917969 603.90625 951.015625 603.996094 950.101562 603.996094 C 949.191406 603.996094 948.289062 603.90625 947.394531 603.726562 C 946.5 603.550781 945.632812 603.285156 944.789062 602.9375 C 943.949219 602.589844 943.148438 602.160156 942.390625 601.65625 C 941.632812 601.148438 940.933594 600.574219 940.289062 599.929688 C 939.644531 599.285156 939.066406 598.582031 938.5625 597.824219 C 938.054688 597.066406 937.628906 596.269531 937.277344 595.425781 C 936.929688 594.585938 936.667969 593.714844 936.488281 592.824219 C 936.3125 591.929688 936.222656 591.027344 936.222656 590.113281 C 936.222656 589.203125 936.3125 588.300781 936.488281 587.40625 C 936.667969 586.511719 936.929688 585.644531 937.277344 584.804688 C 937.628906 583.960938 938.054688 583.160156 938.5625 582.402344 C 939.066406 581.644531 939.644531 580.945312 940.289062 580.300781 C 940.933594 579.65625 941.632812 579.078125 942.390625 578.574219 C 943.148438 578.066406 943.949219 577.640625 944.789062 577.292969 C 945.632812 576.941406 946.5 576.679688 947.394531 576.5 C 948.289062 576.324219 949.191406 576.234375 950.101562 576.234375 C 951.015625 576.234375 951.917969 576.324219 952.8125 576.5 C 953.707031 576.679688 954.574219 576.941406 955.414062 577.292969 C 956.257812 577.640625 957.058594 578.066406 957.816406 578.574219 C 958.574219 579.078125 959.273438 579.65625 959.917969 580.300781 C 960.5625 580.945312 961.136719 581.644531 961.644531 582.402344 C 962.152344 583.160156 962.578125 583.960938 962.925781 584.804688 C 963.277344 585.644531 963.539062 586.511719 963.71875 587.40625 C 963.894531 588.300781 963.984375 589.203125 963.984375 590.113281 Z M 963.984375 590.113281 " fill-opacity="1" fill-rule="nonzero"/></g><path fill="#a4d518" d="M 954.070312 633.015625 C 954.070312 633.707031 954 634.394531 953.867188 635.074219 C 953.730469 635.753906 953.53125 636.414062 953.265625 637.050781 C 953 637.691406 952.675781 638.300781 952.292969 638.875 C 951.90625 639.449219 951.46875 639.984375 950.980469 640.472656 C 950.492188 640.960938 949.957031 641.398438 949.382812 641.785156 C 948.804688 642.167969 948.199219 642.492188 947.558594 642.757812 C 946.917969 643.023438 946.257812 643.222656 945.582031 643.359375 C 944.902344 643.492188 944.214844 643.5625 943.523438 643.5625 C 942.832031 643.5625 942.144531 643.492188 941.464844 643.359375 C 940.785156 643.222656 940.125 643.023438 939.488281 642.757812 C 938.847656 642.492188 938.238281 642.167969 937.664062 641.785156 C 937.085938 641.398438 936.554688 640.960938 936.066406 640.472656 C 935.574219 639.984375 935.136719 639.449219 934.753906 638.875 C 934.371094 638.300781 934.042969 637.691406 933.78125 637.050781 C 933.515625 636.414062 933.3125 635.753906 933.179688 635.074219 C 933.042969 634.394531 932.976562 633.707031 932.976562 633.015625 C 932.976562 632.324219 933.042969 631.636719 933.179688 630.960938 C 933.3125 630.28125 933.515625 629.621094 933.78125 628.980469 C 934.042969 628.339844 934.371094 627.734375 934.753906 627.15625 C 935.136719 626.582031 935.574219 626.050781 936.066406 625.558594 C 936.554688 625.070312 937.085938 624.632812 937.664062 624.25 C 938.238281 623.863281 938.847656 623.539062 939.488281 623.273438 C 940.125 623.007812 940.785156 622.808594 941.464844 622.675781 C 942.144531 622.539062 942.832031 622.472656 943.523438 622.472656 C 944.214844 622.472656 944.902344 622.539062 945.582031 622.675781 C 946.257812 622.808594 946.917969 623.007812 947.558594 623.273438 C 948.199219 623.539062 948.804688 623.863281 949.382812 624.25 C 949.957031 624.632812 950.492188 625.070312 950.980469 625.558594 C 951.46875 626.050781 951.90625 626.582031 952.292969 627.15625 C 952.675781 627.734375 953 628.339844 953.265625 628.980469 C 953.53125 629.621094 953.730469 630.28125 953.867188 630.960938 C 954 631.636719 954.070312 632.324219 954.070312 633.015625 Z M 954.070312 633.015625 " fill-opacity="1" fill-rule="nonzero"/><path fill="#a4d518" d="M 934.960938 667.988281 C 934.960938 668.417969 934.917969 668.847656 934.832031 669.269531 C 934.75 669.695312 934.625 670.105469 934.457031 670.503906 C 934.292969 670.902344 934.089844 671.28125 933.851562 671.640625 C 933.609375 672 933.339844 672.332031 933.03125 672.640625 C 932.726562 672.945312 932.394531 673.21875 932.035156 673.457031 C 931.675781 673.699219 931.296875 673.898438 930.898438 674.066406 C 930.5 674.230469 930.085938 674.355469 929.664062 674.441406 C 929.238281 674.523438 928.8125 674.566406 928.378906 674.566406 C 927.949219 674.566406 927.519531 674.523438 927.097656 674.441406 C 926.671875 674.355469 926.261719 674.230469 925.863281 674.066406 C 925.460938 673.898438 925.082031 673.699219 924.722656 673.457031 C 924.363281 673.21875 924.03125 672.945312 923.726562 672.640625 C 923.421875 672.332031 923.148438 672 922.910156 671.640625 C 922.667969 671.28125 922.464844 670.902344 922.300781 670.503906 C 922.136719 670.105469 922.011719 669.695312 921.925781 669.269531 C 921.839844 668.847656 921.800781 668.417969 921.800781 667.988281 C 921.800781 667.554688 921.839844 667.128906 921.925781 666.703125 C 922.011719 666.28125 922.136719 665.867188 922.300781 665.46875 C 922.464844 665.070312 922.667969 664.691406 922.910156 664.332031 C 923.148438 663.972656 923.421875 663.640625 923.726562 663.335938 C 924.03125 663.027344 924.363281 662.757812 924.722656 662.515625 C 925.082031 662.277344 925.460938 662.074219 925.863281 661.910156 C 926.261719 661.742188 926.671875 661.617188 927.097656 661.535156 C 927.519531 661.449219 927.949219 661.40625 928.378906 661.40625 C 928.8125 661.40625 929.238281 661.449219 929.664062 661.535156 C 930.085938 661.617188 930.5 661.742188 930.898438 661.910156 C 931.296875 662.074219 931.675781 662.277344 932.035156 662.515625 C 932.394531 662.757812 932.726562 663.027344 933.03125 663.335938 C 933.339844 663.640625 933.609375 663.972656 933.851562 664.332031 C 934.089844 664.691406 934.292969 665.070312 934.457031 665.46875 C 934.625 665.867188 934.75 666.28125 934.832031 666.703125 C 934.917969 667.128906 934.960938 667.554688 934.960938 667.988281 Z M 934.960938 667.988281 " fill-opacity="1" fill-rule="nonzero"/><path fill="#a4d518" d="M 916.480469 691.78125 C 916.480469 692.082031 916.453125 692.382812 916.394531 692.679688 C 916.332031 692.972656 916.246094 693.261719 916.132812 693.539062 C 916.015625 693.820312 915.875 694.082031 915.707031 694.335938 C 915.539062 694.585938 915.347656 694.816406 915.132812 695.03125 C 914.921875 695.246094 914.6875 695.433594 914.4375 695.601562 C 914.1875 695.769531 913.921875 695.914062 913.644531 696.027344 C 913.363281 696.144531 913.078125 696.230469 912.78125 696.289062 C 912.484375 696.347656 912.1875 696.378906 911.882812 696.378906 C 911.582031 696.378906 911.285156 696.347656 910.988281 696.289062 C 910.691406 696.230469 910.402344 696.144531 910.125 696.027344 C 909.847656 695.914062 909.582031 695.769531 909.332031 695.601562 C 909.078125 695.433594 908.847656 695.246094 908.632812 695.03125 C 908.421875 694.816406 908.230469 694.585938 908.0625 694.335938 C 907.894531 694.082031 907.753906 693.820312 907.636719 693.539062 C 907.519531 693.261719 907.433594 692.972656 907.375 692.679688 C 907.316406 692.382812 907.285156 692.082031 907.285156 691.78125 C 907.285156 691.480469 907.316406 691.179688 907.375 690.882812 C 907.433594 690.589844 907.519531 690.300781 907.636719 690.023438 C 907.753906 689.742188 907.894531 689.476562 908.0625 689.226562 C 908.230469 688.976562 908.421875 688.746094 908.632812 688.53125 C 908.847656 688.316406 909.078125 688.125 909.332031 687.960938 C 909.582031 687.792969 909.847656 687.648438 910.125 687.535156 C 910.402344 687.417969 910.691406 687.332031 910.988281 687.273438 C 911.285156 687.214844 911.582031 687.183594 911.882812 687.183594 C 912.1875 687.183594 912.484375 687.214844 912.78125 687.273438 C 913.078125 687.332031 913.363281 687.417969 913.644531 687.535156 C 913.921875 687.648438 914.1875 687.792969 914.4375 687.960938 C 914.6875 688.125 914.921875 688.316406 915.132812 688.53125 C 915.347656 688.746094 915.539062 688.976562 915.707031 689.226562 C 915.875 689.476562 916.015625 689.742188 916.132812 690.023438 C 916.246094 690.300781 916.332031 690.589844 916.394531 690.882812 C 916.453125 691.179688 916.480469 691.480469 916.480469 691.78125 Z M 916.480469 691.78125 " fill-opacity="1" fill-rule="nonzero"/><path fill="#367f2b" d="M 727.097656 452.9375 L 772.621094 452.9375 C 778.570312 452.9375 784.519531 455.550781 789.113281 460.238281 C 793.082031 464.203125 795.695312 470.152344 795.695312 476.730469 L 795.695312 563.164062 L 882.136719 563.164062 C 888.71875 563.164062 894.667969 565.78125 898.632812 569.746094 C 903.230469 574.34375 905.933594 580.289062 905.933594 586.871094 L 905.933594 631.753906 C 905.933594 637.703125 903.320312 643.652344 898.632812 648.25 C 894.667969 652.214844 888.71875 654.828125 882.136719 654.828125 L 795.695312 654.828125 L 795.695312 741.261719 C 795.695312 747.84375 793.082031 753.789062 789.113281 757.757812 C 784.519531 762.351562 778.570312 765.058594 772.621094 765.058594 L 727.097656 765.058594 C 721.148438 765.058594 715.199219 762.441406 710.605469 757.757812 C 706.636719 753.789062 704.023438 747.84375 704.023438 741.261719 L 704.023438 654.828125 L 617.582031 654.828125 C 611 654.828125 605.050781 652.214844 601.085938 648.25 C 596.488281 643.652344 593.785156 637.703125 593.785156 631.753906 L 593.785156 586.871094 C 593.785156 580.289062 596.398438 574.34375 601.085938 569.746094 C 605.050781 565.78125 611 563.164062 617.582031 563.164062 L 704.023438 563.164062 L 704.023438 476.730469 C 704.023438 470.152344 706.636719 464.203125 710.605469 460.238281 C 715.199219 455.550781 721.148438 452.9375 727.097656 452.9375 Z M 772.621094 464.742188 L 727.097656 464.742188 C 724.484375 464.742188 721.148438 466.09375 719.167969 468.078125 C 717.183594 470.691406 715.832031 473.394531 715.832031 476.640625 L 715.832031 574.972656 L 617.582031 574.972656 C 614.246094 574.972656 611.632812 576.324219 609.015625 578.308594 C 607.035156 580.289062 605.683594 583.625 605.683594 586.871094 L 605.683594 631.753906 C 605.683594 635.089844 607.035156 637.703125 609.015625 639.6875 C 611.632812 641.667969 614.335938 643.019531 617.582031 643.019531 L 715.921875 643.019531 L 715.921875 741.351562 C 715.921875 744.6875 717.273438 747.300781 719.257812 749.914062 C 721.242188 751.898438 724.574219 753.25 727.191406 753.25 L 772.710938 753.25 C 775.324219 753.25 778.660156 751.898438 780.640625 749.914062 C 782.625 747.300781 783.976562 744.597656 783.976562 741.351562 L 783.976562 642.929688 L 882.320312 642.929688 C 885.652344 642.929688 888.269531 641.578125 890.882812 639.597656 C 892.863281 637.613281 894.21875 635 894.21875 631.664062 L 894.21875 586.78125 C 894.21875 583.445312 892.863281 580.199219 890.882812 578.21875 C 888.269531 576.234375 885.5625 574.882812 882.320312 574.882812 L 783.886719 574.882812 L 783.886719 476.640625 C 783.886719 473.304688 782.535156 470.691406 780.550781 468.710938 C 778.570312 466.09375 775.234375 464.742188 772.621094 464.742188 Z M 772.621094 464.742188 " fill-opacity="1" fill-rule="nonzero"/><g transform="matrix(1, 0, 0, 1, 530, 867)"><g clip-path="url(#58ee1a4c1c)"><g fill="#303030" fill-opacity="1"><g transform="translate(1.148727, 132.752296)"><g><path d="M 37.375 -41.59375 C 40.957031 -41.59375 43.707031 -42.425781 45.625 -44.09375 C 47.539062 -45.757812 48.5 -48.296875 48.5 -51.703125 C 48.5 -54.941406 47.492188 -57.4375 45.484375 -59.1875 C 43.484375 -60.9375 40.566406 -61.8125 36.734375 -61.8125 C 35.367188 -61.8125 34.238281 -61.789062 33.34375 -61.75 C 32.445312 -61.707031 31.53125 -61.601562 30.59375 -61.4375 L 30.59375 -41.59375 Z M 30.71875 -0.515625 C 29.78125 -0.253906 28.304688 0 26.296875 0.25 C 24.296875 0.507812 22.3125 0.640625 20.34375 0.640625 C 18.382812 0.640625 16.65625 0.488281 15.15625 0.1875 C 13.664062 -0.101562 12.410156 -0.632812 11.390625 -1.40625 C 10.367188 -2.175781 9.597656 -3.242188 9.078125 -4.609375 C 8.566406 -5.972656 8.3125 -7.765625 8.3125 -9.984375 L 8.3125 -70.265625 C 8.3125 -72.054688 8.800781 -73.441406 9.78125 -74.421875 C 10.769531 -75.398438 12.117188 -76.191406 13.828125 -76.796875 C 16.722656 -77.816406 20.023438 -78.5625 23.734375 -79.03125 C 27.453125 -79.5 31.1875 -79.734375 34.9375 -79.734375 C 46.707031 -79.734375 55.707031 -77.210938 61.9375 -72.171875 C 68.164062 -67.140625 71.28125 -60.316406 71.28125 -51.703125 C 71.28125 -47.523438 70.617188 -43.75 69.296875 -40.375 C 67.972656 -37.007812 66.007812 -34.109375 63.40625 -31.671875 C 60.8125 -29.242188 57.53125 -27.367188 53.5625 -26.046875 C 49.59375 -24.722656 45.003906 -24.0625 39.796875 -24.0625 L 30.71875 -24.0625 Z M 30.71875 -0.515625 "/></g></g></g><g fill="#303030" fill-opacity="1"><g transform="translate(75.498468, 132.752296)"><g><path d="M 24.828125 -75.25 C 26.273438 -76.101562 28.46875 -76.914062 31.40625 -77.6875 C 34.351562 -78.457031 37.320312 -78.84375 40.3125 -78.84375 C 44.582031 -78.84375 48.359375 -78.222656 51.640625 -76.984375 C 54.921875 -75.742188 57.035156 -73.800781 57.984375 -71.15625 C 59.515625 -66.71875 61.175781 -61.554688 62.96875 -55.671875 C 64.757812 -49.785156 66.550781 -43.707031 68.34375 -37.4375 C 70.132812 -31.164062 71.882812 -24.976562 73.59375 -18.875 C 75.300781 -12.78125 76.796875 -7.382812 78.078125 -2.6875 C 77.046875 -1.488281 75.503906 -0.53125 73.453125 0.1875 C 71.410156 0.914062 68.984375 1.28125 66.171875 1.28125 C 64.117188 1.28125 62.390625 1.109375 60.984375 0.765625 C 59.578125 0.421875 58.425781 -0.0859375 57.53125 -0.765625 C 56.632812 -1.453125 55.90625 -2.347656 55.34375 -3.453125 C 54.789062 -4.566406 54.300781 -5.847656 53.875 -7.296875 L 51.578125 -16.125 L 28.40625 -16.125 C 27.726562 -13.5625 27.046875 -10.914062 26.359375 -8.1875 C 25.679688 -5.457031 25 -2.8125 24.3125 -0.25 C 23.125 0.175781 21.867188 0.535156 20.546875 0.828125 C 19.222656 1.128906 17.617188 1.28125 15.734375 1.28125 C 11.390625 1.28125 8.171875 0.535156 6.078125 -0.953125 C 3.984375 -2.453125 2.9375 -4.523438 2.9375 -7.171875 C 2.9375 -8.359375 3.109375 -9.550781 3.453125 -10.75 C 3.796875 -11.945312 4.179688 -13.351562 4.609375 -14.96875 C 5.203125 -17.28125 6.03125 -20.140625 7.09375 -23.546875 C 8.164062 -26.960938 9.34375 -30.65625 10.625 -34.625 C 11.90625 -38.59375 13.269531 -42.664062 14.71875 -46.84375 C 16.164062 -51.019531 17.53125 -54.960938 18.8125 -58.671875 C 20.09375 -62.390625 21.265625 -65.695312 22.328125 -68.59375 C 23.398438 -71.5 24.234375 -73.71875 24.828125 -75.25 Z M 40.1875 -58.75 C 38.988281 -55.164062 37.644531 -51.175781 36.15625 -46.78125 C 34.664062 -42.382812 33.320312 -37.925781 32.125 -33.40625 L 48 -33.40625 C 46.800781 -38.007812 45.582031 -42.507812 44.34375 -46.90625 C 43.101562 -51.300781 41.972656 -55.25 40.953125 -58.75 Z M 40.1875 -58.75 "/></g></g></g><g fill="#303030" fill-opacity="1"><g transform="translate(155.734727, 132.752296)"><g><path d="M 47.859375 -61.9375 C 41.296875 -61.9375 36.265625 -59.929688 32.765625 -55.921875 C 29.265625 -51.910156 27.515625 -46.238281 27.515625 -38.90625 C 27.515625 -31.476562 29.453125 -25.757812 33.328125 -21.75 C 37.210938 -17.738281 42.441406 -15.734375 49.015625 -15.734375 C 52.515625 -15.734375 55.476562 -16.203125 57.90625 -17.140625 C 60.34375 -18.085938 62.671875 -19.15625 64.890625 -20.34375 C 66.335938 -19.15625 67.46875 -17.726562 68.28125 -16.0625 C 69.09375 -14.394531 69.5 -12.453125 69.5 -10.234375 C 69.5 -6.734375 67.554688 -3.769531 63.671875 -1.34375 C 59.785156 1.082031 53.878906 2.296875 45.953125 2.296875 C 40.234375 2.296875 34.851562 1.488281 29.8125 -0.125 C 24.78125 -1.75 20.382812 -4.242188 16.625 -7.609375 C 12.875 -10.984375 9.910156 -15.25 7.734375 -20.40625 C 5.566406 -25.570312 4.484375 -31.738281 4.484375 -38.90625 C 4.484375 -45.5625 5.523438 -51.425781 7.609375 -56.5 C 9.703125 -61.582031 12.5625 -65.867188 16.1875 -69.359375 C 19.8125 -72.859375 24.054688 -75.503906 28.921875 -77.296875 C 33.785156 -79.085938 38.988281 -79.984375 44.53125 -79.984375 C 52.382812 -79.984375 58.460938 -78.703125 62.765625 -76.140625 C 67.078125 -73.585938 69.234375 -70.304688 69.234375 -66.296875 C 69.234375 -64.078125 68.675781 -62.15625 67.5625 -60.53125 C 66.457031 -58.914062 65.179688 -57.640625 63.734375 -56.703125 C 61.515625 -58.148438 59.144531 -59.382812 56.625 -60.40625 C 54.113281 -61.425781 51.191406 -61.9375 47.859375 -61.9375 Z M 47.859375 -61.9375 "/></g></g></g><g fill="#303030" fill-opacity="1"><g transform="translate(228.804742, 132.752296)"><g><path d="M 30.328125 -30.84375 C 26.578125 -32.125 23.164062 -33.425781 20.09375 -34.75 C 17.019531 -36.070312 14.375 -37.671875 12.15625 -39.546875 C 9.9375 -41.421875 8.207031 -43.660156 6.96875 -46.265625 C 5.738281 -48.867188 5.125 -52.046875 5.125 -55.796875 C 5.125 -63.054688 7.914062 -68.859375 13.5 -73.203125 C 19.09375 -77.554688 26.921875 -79.734375 36.984375 -79.734375 C 40.648438 -79.734375 44.0625 -79.476562 47.21875 -78.96875 C 50.382812 -78.457031 53.097656 -77.664062 55.359375 -76.59375 C 57.617188 -75.53125 59.382812 -74.164062 60.65625 -72.5 C 61.9375 -70.832031 62.578125 -68.894531 62.578125 -66.6875 C 62.578125 -64.46875 62.066406 -62.566406 61.046875 -60.984375 C 60.023438 -59.398438 58.789062 -58.054688 57.34375 -56.953125 C 55.457031 -58.148438 52.9375 -59.195312 49.78125 -60.09375 C 46.625 -60.988281 43.171875 -61.4375 39.421875 -61.4375 C 35.578125 -61.4375 32.757812 -60.898438 30.96875 -59.828125 C 29.175781 -58.765625 28.28125 -57.421875 28.28125 -55.796875 C 28.28125 -54.515625 28.832031 -53.46875 29.9375 -52.65625 C 31.050781 -51.851562 32.71875 -51.109375 34.9375 -50.421875 L 41.71875 -48.25 C 49.738281 -45.6875 55.90625 -42.421875 60.21875 -38.453125 C 64.53125 -34.492188 66.6875 -29.097656 66.6875 -22.265625 C 66.6875 -15.015625 63.828125 -9.148438 58.109375 -4.671875 C 52.390625 -0.191406 43.984375 2.046875 32.890625 2.046875 C 28.960938 2.046875 25.3125 1.722656 21.9375 1.078125 C 18.570312 0.441406 15.628906 -0.488281 13.109375 -1.71875 C 10.597656 -2.957031 8.640625 -4.492188 7.234375 -6.328125 C 5.828125 -8.171875 5.125 -10.285156 5.125 -12.671875 C 5.125 -15.140625 5.847656 -17.25 7.296875 -19 C 8.742188 -20.75 10.320312 -22.09375 12.03125 -23.03125 C 14.414062 -21.15625 17.335938 -19.535156 20.796875 -18.171875 C 24.253906 -16.804688 28.03125 -16.125 32.125 -16.125 C 36.300781 -16.125 39.242188 -16.765625 40.953125 -18.046875 C 42.660156 -19.328125 43.515625 -20.820312 43.515625 -22.53125 C 43.515625 -24.226562 42.832031 -25.523438 41.46875 -26.421875 C 40.101562 -27.316406 38.179688 -28.191406 35.703125 -29.046875 Z M 30.328125 -30.84375 "/></g></g></g><g fill="#303030" fill-opacity="1"><g transform="translate(299.315401, 132.752296)"><g><path d="M 44.921875 -6.40625 C 44.242188 -6.0625 42.984375 -5.78125 41.140625 -5.5625 C 39.304688 -5.351562 37.535156 -5.25 35.828125 -5.25 C 32.335938 -5.25 29.695312 -5.820312 27.90625 -6.96875 C 26.113281 -8.125 25.21875 -10.578125 25.21875 -14.328125 L 25.21875 -28.40625 L 5.890625 -28.40625 C 5.285156 -29.351562 4.789062 -30.59375 4.40625 -32.125 C 4.03125 -33.65625 3.84375 -35.191406 3.84375 -36.734375 C 3.84375 -39.804688 4.523438 -42.046875 5.890625 -43.453125 C 7.253906 -44.859375 9.085938 -45.5625 11.390625 -45.5625 L 25.21875 -45.5625 L 25.21875 -67.0625 C 26.070312 -67.320312 27.367188 -67.597656 29.109375 -67.890625 C 30.859375 -68.191406 32.585938 -68.34375 34.296875 -68.34375 C 37.710938 -68.34375 40.335938 -67.742188 42.171875 -66.546875 C 44.003906 -65.359375 44.921875 -62.84375 44.921875 -59 L 44.921875 -45.5625 L 63.859375 -45.5625 C 64.285156 -44.539062 64.734375 -43.28125 65.203125 -41.78125 C 65.671875 -40.289062 65.90625 -38.734375 65.90625 -37.109375 C 65.90625 -34.128906 65.222656 -31.929688 63.859375 -30.515625 C 62.492188 -29.109375 60.703125 -28.40625 58.484375 -28.40625 L 44.921875 -28.40625 Z M 44.921875 -6.40625 "/></g></g></g><g fill="#303030" fill-opacity="1"><g transform="translate(369.058255, 132.752296)"><g><path d="M 44.921875 -6.40625 C 44.242188 -6.0625 42.984375 -5.78125 41.140625 -5.5625 C 39.304688 -5.351562 37.535156 -5.25 35.828125 -5.25 C 32.335938 -5.25 29.695312 -5.820312 27.90625 -6.96875 C 26.113281 -8.125 25.21875 -10.578125 25.21875 -14.328125 L 25.21875 -28.40625 L 5.890625 -28.40625 C 5.285156 -29.351562 4.789062 -30.59375 4.40625 -32.125 C 4.03125 -33.65625 3.84375 -35.191406 3.84375 -36.734375 C 3.84375 -39.804688 4.523438 -42.046875 5.890625 -43.453125 C 7.253906 -44.859375 9.085938 -45.5625 11.390625 -45.5625 L 25.21875 -45.5625 L 25.21875 -67.0625 C 26.070312 -67.320312 27.367188 -67.597656 29.109375 -67.890625 C 30.859375 -68.191406 32.585938 -68.34375 34.296875 -68.34375 C 37.710938 -68.34375 40.335938 -67.742188 42.171875 -66.546875 C 44.003906 -65.359375 44.921875 -62.84375 44.921875 -59 L 44.921875 -45.5625 L 63.859375 -45.5625 C 64.285156 -44.539062 64.734375 -43.28125 65.203125 -41.78125 C 65.671875 -40.289062 65.90625 -38.734375 65.90625 -37.109375 C 65.90625 -34.128906 65.222656 -31.929688 63.859375 -30.515625 C 62.492188 -29.109375 60.703125 -28.40625 58.484375 -28.40625 L 44.921875 -28.40625 Z M 44.921875 -6.40625 "/></g></g></g></g></g><g transform="matrix(1, 0, 0, 1, 388, 1049)"><g clip-path="url(#349f496572)"><g fill="#367f2b" fill-opacity="1"><g transform="translate(1.045597, 51.80758)"><g><path d="M 18.25 0.5625 C 14.664062 0.5625 11.671875 0.0390625 9.265625 -1 C 6.859375 -2.050781 5.035156 -3.414062 3.796875 -5.09375 C 2.566406 -6.769531 1.914062 -8.5625 1.84375 -10.46875 C 1.84375 -10.800781 1.953125 -11.078125 2.171875 -11.296875 C 2.398438 -11.523438 2.679688 -11.640625 3.015625 -11.640625 L 9.0625 -11.640625 C 9.550781 -11.640625 9.925781 -11.546875 10.1875 -11.359375 C 10.445312 -11.171875 10.691406 -10.929688 10.921875 -10.640625 C 11.179688 -9.960938 11.597656 -9.328125 12.171875 -8.734375 C 12.753906 -8.140625 13.539062 -7.65625 14.53125 -7.28125 C 15.519531 -6.90625 16.757812 -6.71875 18.25 -6.71875 C 20.675781 -6.71875 22.492188 -7.109375 23.703125 -7.890625 C 24.921875 -8.671875 25.53125 -9.734375 25.53125 -11.078125 C 25.53125 -12.015625 25.203125 -12.78125 24.546875 -13.375 C 23.890625 -13.976562 22.863281 -14.519531 21.46875 -15 C 20.070312 -15.488281 18.21875 -15.992188 15.90625 -16.515625 C 13.101562 -17.148438 10.722656 -17.941406 8.765625 -18.890625 C 6.804688 -19.847656 5.332031 -21.082031 4.34375 -22.59375 C 3.351562 -24.101562 2.859375 -25.976562 2.859375 -28.21875 C 2.859375 -30.457031 3.472656 -32.441406 4.703125 -34.171875 C 5.929688 -35.910156 7.664062 -37.273438 9.90625 -38.265625 C 12.144531 -39.253906 14.816406 -39.75 17.921875 -39.75 C 20.421875 -39.75 22.628906 -39.410156 24.546875 -38.734375 C 26.472656 -38.066406 28.078125 -37.191406 29.359375 -36.109375 C 30.648438 -35.023438 31.628906 -33.867188 32.296875 -32.640625 C 32.972656 -31.410156 33.328125 -30.21875 33.359375 -29.0625 C 33.359375 -28.71875 33.253906 -28.425781 33.046875 -28.1875 C 32.847656 -27.945312 32.5625 -27.828125 32.1875 -27.828125 L 25.921875 -27.828125 C 25.546875 -27.828125 25.207031 -27.898438 24.90625 -28.046875 C 24.613281 -28.191406 24.351562 -28.453125 24.125 -28.828125 C 23.9375 -29.835938 23.289062 -30.695312 22.1875 -31.40625 C 21.09375 -32.113281 19.671875 -32.46875 17.921875 -32.46875 C 16.085938 -32.46875 14.640625 -32.140625 13.578125 -31.484375 C 12.515625 -30.835938 11.984375 -29.820312 11.984375 -28.4375 C 11.984375 -27.539062 12.257812 -26.785156 12.8125 -26.171875 C 13.375 -25.554688 14.289062 -25.015625 15.5625 -24.546875 C 16.832031 -24.078125 18.550781 -23.582031 20.71875 -23.0625 C 23.957031 -22.394531 26.601562 -21.582031 28.65625 -20.625 C 30.71875 -19.675781 32.234375 -18.460938 33.203125 -16.984375 C 34.171875 -15.515625 34.65625 -13.660156 34.65625 -11.421875 C 34.65625 -8.921875 33.960938 -6.773438 32.578125 -4.984375 C 31.203125 -3.191406 29.28125 -1.816406 26.8125 -0.859375 C 24.351562 0.0859375 21.5 0.5625 18.25 0.5625 Z M 18.25 0.5625 "/></g></g></g><g fill="#367f2b" fill-opacity="1"><g transform="translate(48.737151, 51.80758)"><g><path d="M 15.734375 0 C 15.316406 0 14.976562 -0.128906 14.71875 -0.390625 C 14.457031 -0.648438 14.328125 -0.988281 14.328125 -1.40625 L 14.328125 -13.71875 L 1.234375 -37.390625 C 1.191406 -37.503906 1.148438 -37.609375 1.109375 -37.703125 C 1.078125 -37.796875 1.0625 -37.898438 1.0625 -38.015625 C 1.0625 -38.316406 1.179688 -38.585938 1.421875 -38.828125 C 1.671875 -39.066406 1.941406 -39.1875 2.234375 -39.1875 L 8.234375 -39.1875 C 8.710938 -39.1875 9.101562 -39.054688 9.40625 -38.796875 C 9.707031 -38.535156 9.910156 -38.289062 10.015625 -38.0625 L 18.8125 -22.671875 L 27.59375 -38.0625 C 27.707031 -38.289062 27.910156 -38.535156 28.203125 -38.796875 C 28.503906 -39.054688 28.921875 -39.1875 29.453125 -39.1875 L 35.375 -39.1875 C 35.71875 -39.1875 36 -39.066406 36.21875 -38.828125 C 36.445312 -38.585938 36.5625 -38.316406 36.5625 -38.015625 C 36.5625 -37.898438 36.550781 -37.796875 36.53125 -37.703125 C 36.507812 -37.609375 36.460938 -37.503906 36.390625 -37.390625 L 23.296875 -13.71875 L 23.296875 -1.40625 C 23.296875 -0.988281 23.160156 -0.648438 22.890625 -0.390625 C 22.628906 -0.128906 22.296875 0 21.890625 0 Z M 15.734375 0 "/></g></g></g><g fill="#367f2b" fill-opacity="1"><g transform="translate(97.548075, 51.80758)"><g><path d="M 18.25 0.5625 C 14.664062 0.5625 11.671875 0.0390625 9.265625 -1 C 6.859375 -2.050781 5.035156 -3.414062 3.796875 -5.09375 C 2.566406 -6.769531 1.914062 -8.5625 1.84375 -10.46875 C 1.84375 -10.800781 1.953125 -11.078125 2.171875 -11.296875 C 2.398438 -11.523438 2.679688 -11.640625 3.015625 -11.640625 L 9.0625 -11.640625 C 9.550781 -11.640625 9.925781 -11.546875 10.1875 -11.359375 C 10.445312 -11.171875 10.691406 -10.929688 10.921875 -10.640625 C 11.179688 -9.960938 11.597656 -9.328125 12.171875 -8.734375 C 12.753906 -8.140625 13.539062 -7.65625 14.53125 -7.28125 C 15.519531 -6.90625 16.757812 -6.71875 18.25 -6.71875 C 20.675781 -6.71875 22.492188 -7.109375 23.703125 -7.890625 C 24.921875 -8.671875 25.53125 -9.734375 25.53125 -11.078125 C 25.53125 -12.015625 25.203125 -12.78125 24.546875 -13.375 C 23.890625 -13.976562 22.863281 -14.519531 21.46875 -15 C 20.070312 -15.488281 18.21875 -15.992188 15.90625 -16.515625 C 13.101562 -17.148438 10.722656 -17.941406 8.765625 -18.890625 C 6.804688 -19.847656 5.332031 -21.082031 4.34375 -22.59375 C 3.351562 -24.101562 2.859375 -25.976562 2.859375 -28.21875 C 2.859375 -30.457031 3.472656 -32.441406 4.703125 -34.171875 C 5.929688 -35.910156 7.664062 -37.273438 9.90625 -38.265625 C 12.144531 -39.253906 14.816406 -39.75 17.921875 -39.75 C 20.421875 -39.75 22.628906 -39.410156 24.546875 -38.734375 C 26.472656 -38.066406 28.078125 -37.191406 29.359375 -36.109375 C 30.648438 -35.023438 31.628906 -33.867188 32.296875 -32.640625 C 32.972656 -31.410156 33.328125 -30.21875 33.359375 -29.0625 C 33.359375 -28.71875 33.253906 -28.425781 33.046875 -28.1875 C 32.847656 -27.945312 32.5625 -27.828125 32.1875 -27.828125 L 25.921875 -27.828125 C 25.546875 -27.828125 25.207031 -27.898438 24.90625 -28.046875 C 24.613281 -28.191406 24.351562 -28.453125 24.125 -28.828125 C 23.9375 -29.835938 23.289062 -30.695312 22.1875 -31.40625 C 21.09375 -32.113281 19.671875 -32.46875 17.921875 -32.46875 C 16.085938 -32.46875 14.640625 -32.140625 13.578125 -31.484375 C 12.515625 -30.835938 11.984375 -29.820312 11.984375 -28.4375 C 11.984375 -27.539062 12.257812 -26.785156 12.8125 -26.171875 C 13.375 -25.554688 14.289062 -25.015625 15.5625 -24.546875 C 16.832031 -24.078125 18.550781 -23.582031 20.71875 -23.0625 C 23.957031 -22.394531 26.601562 -21.582031 28.65625 -20.625 C 30.71875 -19.675781 32.234375 -18.460938 33.203125 -16.984375 C 34.171875 -15.515625 34.65625 -13.660156 34.65625 -11.421875 C 34.65625 -8.921875 33.960938 -6.773438 32.578125 -4.984375 C 31.203125 -3.191406 29.28125 -1.816406 26.8125 -0.859375 C 24.351562 0.0859375 21.5 0.5625 18.25 0.5625 Z M 18.25 0.5625 "/></g></g></g><g fill="#367f2b" fill-opacity="1"><g transform="translate(145.23963, 51.80758)"><g><path d="M 14.15625 0 C 13.75 0 13.414062 -0.128906 13.15625 -0.390625 C 12.894531 -0.648438 12.765625 -0.988281 12.765625 -1.40625 L 12.765625 -31.34375 L 2.578125 -31.34375 C 2.203125 -31.34375 1.882812 -31.472656 1.625 -31.734375 C 1.363281 -32.003906 1.234375 -32.34375 1.234375 -32.75 L 1.234375 -37.796875 C 1.234375 -38.203125 1.363281 -38.535156 1.625 -38.796875 C 1.882812 -39.054688 2.203125 -39.1875 2.578125 -39.1875 L 31.90625 -39.1875 C 32.320312 -39.1875 32.660156 -39.054688 32.921875 -38.796875 C 33.179688 -38.535156 33.3125 -38.203125 33.3125 -37.796875 L 33.3125 -32.75 C 33.3125 -32.34375 33.179688 -32.003906 32.921875 -31.734375 C 32.660156 -31.472656 32.320312 -31.34375 31.90625 -31.34375 L 21.78125 -31.34375 L 21.78125 -1.40625 C 21.78125 -0.988281 21.648438 -0.648438 21.390625 -0.390625 C 21.128906 -0.128906 20.789062 0 20.375 0 Z M 14.15625 0 "/></g></g></g><g fill="#367f2b" fill-opacity="1"><g transform="translate(190.972277, 51.80758)"><g><path d="M 5.484375 0 C 5.109375 0 4.789062 -0.128906 4.53125 -0.390625 C 4.269531 -0.648438 4.140625 -0.988281 4.140625 -1.40625 L 4.140625 -37.796875 C 4.140625 -38.203125 4.269531 -38.535156 4.53125 -38.796875 C 4.789062 -39.054688 5.109375 -39.1875 5.484375 -39.1875 L 30.90625 -39.1875 C 31.3125 -39.1875 31.644531 -39.054688 31.90625 -38.796875 C 32.164062 -38.535156 32.296875 -38.203125 32.296875 -37.796875 L 32.296875 -33.3125 C 32.296875 -32.894531 32.164062 -32.554688 31.90625 -32.296875 C 31.644531 -32.035156 31.3125 -31.90625 30.90625 -31.90625 L 12.765625 -31.90625 L 12.765625 -23.171875 L 29.671875 -23.171875 C 30.078125 -23.171875 30.410156 -23.039062 30.671875 -22.78125 C 30.941406 -22.519531 31.078125 -22.1875 31.078125 -21.78125 L 31.078125 -17.640625 C 31.078125 -17.265625 30.941406 -16.9375 30.671875 -16.65625 C 30.410156 -16.375 30.078125 -16.234375 29.671875 -16.234375 L 12.765625 -16.234375 L 12.765625 -7.28125 L 31.34375 -7.28125 C 31.757812 -7.28125 32.097656 -7.148438 32.359375 -6.890625 C 32.617188 -6.628906 32.75 -6.289062 32.75 -5.875 L 32.75 -1.40625 C 32.75 -0.988281 32.617188 -0.648438 32.359375 -0.390625 C 32.097656 -0.128906 31.757812 0 31.34375 0 Z M 5.484375 0 "/></g></g></g><g fill="#367f2b" fill-opacity="1"><g transform="translate(237.488478, 51.80758)"><g><path d="M 5.546875 0 C 5.128906 0 4.789062 -0.128906 4.53125 -0.390625 C 4.269531 -0.648438 4.140625 -0.988281 4.140625 -1.40625 L 4.140625 -37.796875 C 4.140625 -38.203125 4.269531 -38.535156 4.53125 -38.796875 C 4.789062 -39.054688 5.128906 -39.1875 5.546875 -39.1875 L 10.8125 -39.1875 C 11.363281 -39.1875 11.78125 -39.035156 12.0625 -38.734375 C 12.34375 -38.441406 12.519531 -38.21875 12.59375 -38.0625 L 22.953125 -19.140625 L 33.3125 -38.0625 C 33.382812 -38.21875 33.5625 -38.441406 33.84375 -38.734375 C 34.125 -39.035156 34.546875 -39.1875 35.109375 -39.1875 L 40.3125 -39.1875 C 40.71875 -39.1875 41.050781 -39.054688 41.3125 -38.796875 C 41.570312 -38.535156 41.703125 -38.203125 41.703125 -37.796875 L 41.703125 -1.40625 C 41.703125 -0.988281 41.570312 -0.648438 41.3125 -0.390625 C 41.050781 -0.128906 40.71875 0 40.3125 0 L 34.59375 0 C 34.21875 0 33.898438 -0.128906 33.640625 -0.390625 C 33.378906 -0.648438 33.25 -0.988281 33.25 -1.40625 L 33.25 -23.96875 L 26.140625 -10.6875 C 25.992188 -10.351562 25.769531 -10.054688 25.46875 -9.796875 C 25.175781 -9.535156 24.765625 -9.40625 24.234375 -9.40625 L 21.609375 -9.40625 C 21.117188 -9.40625 20.722656 -9.535156 20.421875 -9.796875 C 20.128906 -10.054688 19.890625 -10.351562 19.703125 -10.6875 L 12.65625 -23.96875 L 12.65625 -1.40625 C 12.65625 -0.988281 12.523438 -0.648438 12.265625 -0.390625 C 12.003906 -0.128906 11.664062 0 11.25 0 Z M 5.546875 0 "/></g></g></g><g fill="#367f2b" fill-opacity="1"><g transform="translate(294.526789, 51.80758)"><g/></g></g><g fill="#367f2b" fill-opacity="1"><g transform="translate(318.095802, 51.80758)"><g><path d="M 5.484375 0 C 5.109375 0 4.789062 -0.128906 4.53125 -0.390625 C 4.269531 -0.648438 4.140625 -0.988281 4.140625 -1.40625 L 4.140625 -37.796875 C 4.140625 -38.203125 4.269531 -38.535156 4.53125 -38.796875 C 4.789062 -39.054688 5.109375 -39.1875 5.484375 -39.1875 L 11.640625 -39.1875 C 12.054688 -39.1875 12.394531 -39.054688 12.65625 -38.796875 C 12.914062 -38.535156 13.046875 -38.203125 13.046875 -37.796875 L 13.046875 -23.796875 L 28.21875 -23.796875 L 28.21875 -37.796875 C 28.21875 -38.203125 28.347656 -38.535156 28.609375 -38.796875 C 28.867188 -39.054688 29.1875 -39.1875 29.5625 -39.1875 L 35.71875 -39.1875 C 36.125 -39.1875 36.457031 -39.054688 36.71875 -38.796875 C 36.988281 -38.535156 37.125 -38.203125 37.125 -37.796875 L 37.125 -1.40625 C 37.125 -0.988281 36.988281 -0.648438 36.71875 -0.390625 C 36.457031 -0.128906 36.125 0 35.71875 0 L 29.5625 0 C 29.1875 0 28.867188 -0.128906 28.609375 -0.390625 C 28.347656 -0.648438 28.21875 -0.988281 28.21875 -1.40625 L 28.21875 -15.84375 L 13.046875 -15.84375 L 13.046875 -1.40625 C 13.046875 -0.988281 12.914062 -0.648438 12.65625 -0.390625 C 12.394531 -0.128906 12.054688 0 11.640625 0 Z M 5.484375 0 "/></g></g></g><g fill="#367f2b" fill-opacity="1"><g transform="translate(370.544711, 51.80758)"><g><path d="M 19.703125 0.5625 C 16.304688 0.5625 13.375 0.00390625 10.90625 -1.109375 C 8.445312 -2.234375 6.523438 -3.925781 5.140625 -6.1875 C 3.765625 -8.445312 3.019531 -11.289062 2.90625 -14.71875 C 2.875 -16.320312 2.859375 -17.914062 2.859375 -19.5 C 2.859375 -21.09375 2.875 -22.710938 2.90625 -24.359375 C 3.019531 -27.710938 3.773438 -30.535156 5.171875 -32.828125 C 6.578125 -35.128906 8.519531 -36.859375 11 -38.015625 C 13.476562 -39.171875 16.378906 -39.75 19.703125 -39.75 C 22.992188 -39.75 25.878906 -39.171875 28.359375 -38.015625 C 30.835938 -36.859375 32.785156 -35.128906 34.203125 -32.828125 C 35.617188 -30.535156 36.382812 -27.710938 36.5 -24.359375 C 36.570312 -22.710938 36.609375 -21.09375 36.609375 -19.5 C 36.609375 -17.914062 36.570312 -16.320312 36.5 -14.71875 C 36.382812 -11.289062 35.628906 -8.445312 34.234375 -6.1875 C 32.835938 -3.925781 30.90625 -2.234375 28.4375 -1.109375 C 25.976562 0.00390625 23.066406 0.5625 19.703125 0.5625 Z M 19.703125 -6.71875 C 21.867188 -6.71875 23.648438 -7.367188 25.046875 -8.671875 C 26.453125 -9.984375 27.191406 -12.09375 27.265625 -15 C 27.335938 -16.644531 27.375 -18.1875 27.375 -19.625 C 27.375 -21.0625 27.335938 -22.582031 27.265625 -24.1875 C 27.222656 -26.125 26.863281 -27.707031 26.1875 -28.9375 C 25.519531 -30.175781 24.632812 -31.070312 23.53125 -31.625 C 22.4375 -32.1875 21.160156 -32.46875 19.703125 -32.46875 C 18.285156 -32.46875 17.015625 -32.1875 15.890625 -31.625 C 14.773438 -31.070312 13.878906 -30.175781 13.203125 -28.9375 C 12.535156 -27.707031 12.164062 -26.125 12.09375 -24.1875 C 12.050781 -22.582031 12.03125 -21.0625 12.03125 -19.625 C 12.03125 -18.1875 12.050781 -16.644531 12.09375 -15 C 12.207031 -12.09375 12.953125 -9.984375 14.328125 -8.671875 C 15.710938 -7.367188 17.503906 -6.71875 19.703125 -6.71875 Z M 19.703125 -6.71875 "/></g></g></g><g fill="#367f2b" fill-opacity="1"><g transform="translate(421.09065, 51.80758)"><g><path d="M 18.25 0.5625 C 14.664062 0.5625 11.671875 0.0390625 9.265625 -1 C 6.859375 -2.050781 5.035156 -3.414062 3.796875 -5.09375 C 2.566406 -6.769531 1.914062 -8.5625 1.84375 -10.46875 C 1.84375 -10.800781 1.953125 -11.078125 2.171875 -11.296875 C 2.398438 -11.523438 2.679688 -11.640625 3.015625 -11.640625 L 9.0625 -11.640625 C 9.550781 -11.640625 9.925781 -11.546875 10.1875 -11.359375 C 10.445312 -11.171875 10.691406 -10.929688 10.921875 -10.640625 C 11.179688 -9.960938 11.597656 -9.328125 12.171875 -8.734375 C 12.753906 -8.140625 13.539062 -7.65625 14.53125 -7.28125 C 15.519531 -6.90625 16.757812 -6.71875 18.25 -6.71875 C 20.675781 -6.71875 22.492188 -7.109375 23.703125 -7.890625 C 24.921875 -8.671875 25.53125 -9.734375 25.53125 -11.078125 C 25.53125 -12.015625 25.203125 -12.78125 24.546875 -13.375 C 23.890625 -13.976562 22.863281 -14.519531 21.46875 -15 C 20.070312 -15.488281 18.21875 -15.992188 15.90625 -16.515625 C 13.101562 -17.148438 10.722656 -17.941406 8.765625 -18.890625 C 6.804688 -19.847656 5.332031 -21.082031 4.34375 -22.59375 C 3.351562 -24.101562 2.859375 -25.976562 2.859375 -28.21875 C 2.859375 -30.457031 3.472656 -32.441406 4.703125 -34.171875 C 5.929688 -35.910156 7.664062 -37.273438 9.90625 -38.265625 C 12.144531 -39.253906 14.816406 -39.75 17.921875 -39.75 C 20.421875 -39.75 22.628906 -39.410156 24.546875 -38.734375 C 26.472656 -38.066406 28.078125 -37.191406 29.359375 -36.109375 C 30.648438 -35.023438 31.628906 -33.867188 32.296875 -32.640625 C 32.972656 -31.410156 33.328125 -30.21875 33.359375 -29.0625 C 33.359375 -28.71875 33.253906 -28.425781 33.046875 -28.1875 C 32.847656 -27.945312 32.5625 -27.828125 32.1875 -27.828125 L 25.921875 -27.828125 C 25.546875 -27.828125 25.207031 -27.898438 24.90625 -28.046875 C 24.613281 -28.191406 24.351562 -28.453125 24.125 -28.828125 C 23.9375 -29.835938 23.289062 -30.695312 22.1875 -31.40625 C 21.09375 -32.113281 19.671875 -32.46875 17.921875 -32.46875 C 16.085938 -32.46875 14.640625 -32.140625 13.578125 -31.484375 C 12.515625 -30.835938 11.984375 -29.820312 11.984375 -28.4375 C 11.984375 -27.539062 12.257812 -26.785156 12.8125 -26.171875 C 13.375 -25.554688 14.289062 -25.015625 15.5625 -24.546875 C 16.832031 -24.078125 18.550781 -23.582031 20.71875 -23.0625 C 23.957031 -22.394531 26.601562 -21.582031 28.65625 -20.625 C 30.71875 -19.675781 32.234375 -18.460938 33.203125 -16.984375 C 34.171875 -15.515625 34.65625 -13.660156 34.65625 -11.421875 C 34.65625 -8.921875 33.960938 -6.773438 32.578125 -4.984375 C 31.203125 -3.191406 29.28125 -1.816406 26.8125 -0.859375 C 24.351562 0.0859375 21.5 0.5625 18.25 0.5625 Z M 18.25 0.5625 "/></g></g></g><g fill="#367f2b" fill-opacity="1"><g transform="translate(468.782205, 51.80758)"><g><path d="M 5.484375 0 C 5.109375 0 4.789062 -0.128906 4.53125 -0.390625 C 4.269531 -0.648438 4.140625 -0.988281 4.140625 -1.40625 L 4.140625 -37.796875 C 4.140625 -38.203125 4.269531 -38.535156 4.53125 -38.796875 C 4.789062 -39.054688 5.109375 -39.1875 5.484375 -39.1875 L 20.828125 -39.1875 C 23.847656 -39.1875 26.476562 -38.71875 28.71875 -37.78125 C 30.957031 -36.851562 32.691406 -35.445312 33.921875 -33.5625 C 35.160156 -31.675781 35.78125 -29.316406 35.78125 -26.484375 C 35.78125 -23.679688 35.160156 -21.351562 33.921875 -19.5 C 32.691406 -17.65625 30.957031 -16.285156 28.71875 -15.390625 C 26.476562 -14.492188 23.847656 -14.046875 20.828125 -14.046875 L 13.328125 -14.046875 L 13.328125 -1.40625 C 13.328125 -0.988281 13.195312 -0.648438 12.9375 -0.390625 C 12.675781 -0.128906 12.335938 0 11.921875 0 Z M 13.21875 -21 L 20.546875 -21 C 22.453125 -21 23.925781 -21.460938 24.96875 -22.390625 C 26.007812 -23.328125 26.53125 -24.707031 26.53125 -26.53125 C 26.53125 -28.21875 26.054688 -29.582031 25.109375 -30.625 C 24.160156 -31.664062 22.640625 -32.1875 20.546875 -32.1875 L 13.21875 -32.1875 Z M 13.21875 -21 "/></g></g></g><g fill="#367f2b" fill-opacity="1"><g transform="translate(517.369237, 51.80758)"><g><path d="M 5.484375 0 C 5.109375 0 4.789062 -0.128906 4.53125 -0.390625 C 4.269531 -0.648438 4.140625 -0.988281 4.140625 -1.40625 L 4.140625 -37.796875 C 4.140625 -38.203125 4.269531 -38.535156 4.53125 -38.796875 C 4.789062 -39.054688 5.109375 -39.1875 5.484375 -39.1875 L 11.921875 -39.1875 C 12.296875 -39.1875 12.613281 -39.054688 12.875 -38.796875 C 13.132812 -38.535156 13.265625 -38.203125 13.265625 -37.796875 L 13.265625 -1.40625 C 13.265625 -0.988281 13.132812 -0.648438 12.875 -0.390625 C 12.613281 -0.128906 12.296875 0 11.921875 0 Z M 5.484375 0 "/></g></g></g><g fill="#367f2b" fill-opacity="1"><g transform="translate(545.975436, 51.80758)"><g><path d="M 14.15625 0 C 13.75 0 13.414062 -0.128906 13.15625 -0.390625 C 12.894531 -0.648438 12.765625 -0.988281 12.765625 -1.40625 L 12.765625 -31.34375 L 2.578125 -31.34375 C 2.203125 -31.34375 1.882812 -31.472656 1.625 -31.734375 C 1.363281 -32.003906 1.234375 -32.34375 1.234375 -32.75 L 1.234375 -37.796875 C 1.234375 -38.203125 1.363281 -38.535156 1.625 -38.796875 C 1.882812 -39.054688 2.203125 -39.1875 2.578125 -39.1875 L 31.90625 -39.1875 C 32.320312 -39.1875 32.660156 -39.054688 32.921875 -38.796875 C 33.179688 -38.535156 33.3125 -38.203125 33.3125 -37.796875 L 33.3125 -32.75 C 33.3125 -32.34375 33.179688 -32.003906 32.921875 -31.734375 C 32.660156 -31.472656 32.320312 -31.34375 31.90625 -31.34375 L 21.78125 -31.34375 L 21.78125 -1.40625 C 21.78125 -0.988281 21.648438 -0.648438 21.390625 -0.390625 C 21.128906 -0.128906 20.789062 0 20.375 0 Z M 14.15625 0 "/></g></g></g><g fill="#367f2b" fill-opacity="1"><g transform="translate(591.708083, 51.80758)"><g><path d="M 1.84375 0 C 1.507812 0 1.226562 -0.117188 1 -0.359375 C 0.78125 -0.609375 0.671875 -0.878906 0.671875 -1.171875 C 0.671875 -1.359375 0.691406 -1.523438 0.734375 -1.671875 L 14.046875 -37.671875 C 14.160156 -38.085938 14.382812 -38.441406 14.71875 -38.734375 C 15.0625 -39.035156 15.53125 -39.1875 16.125 -39.1875 L 23.296875 -39.1875 C 23.890625 -39.1875 24.351562 -39.035156 24.6875 -38.734375 C 25.019531 -38.441406 25.265625 -38.085938 25.421875 -37.671875 L 38.6875 -1.671875 C 38.757812 -1.523438 38.796875 -1.359375 38.796875 -1.171875 C 38.796875 -0.878906 38.671875 -0.609375 38.421875 -0.359375 C 38.179688 -0.117188 37.894531 0 37.5625 0 L 31.6875 0 C 31.164062 0 30.773438 -0.128906 30.515625 -0.390625 C 30.253906 -0.648438 30.082031 -0.894531 30 -1.125 L 27.59375 -7.390625 L 11.8125 -7.390625 L 9.46875 -1.125 C 9.351562 -0.894531 9.171875 -0.648438 8.921875 -0.390625 C 8.679688 -0.128906 8.28125 0 7.71875 0 Z M 13.9375 -14.609375 L 25.46875 -14.609375 L 19.703125 -30.671875 Z M 13.9375 -14.609375 "/></g></g></g><g fill="#367f2b" fill-opacity="1"><g transform="translate(642.310008, 51.80758)"><g><path d="M 5.484375 0 C 5.109375 0 4.789062 -0.128906 4.53125 -0.390625 C 4.269531 -0.648438 4.140625 -0.988281 4.140625 -1.40625 L 4.140625 -37.796875 C 4.140625 -38.203125 4.269531 -38.535156 4.53125 -38.796875 C 4.789062 -39.054688 5.109375 -39.1875 5.484375 -39.1875 L 11.8125 -39.1875 C 12.1875 -39.1875 12.503906 -39.054688 12.765625 -38.796875 C 13.023438 -38.535156 13.15625 -38.203125 13.15625 -37.796875 L 13.15625 -7.5625 L 30.515625 -7.5625 C 30.921875 -7.5625 31.253906 -7.429688 31.515625 -7.171875 C 31.773438 -6.910156 31.90625 -6.570312 31.90625 -6.15625 L 31.90625 -1.40625 C 31.90625 -0.988281 31.773438 -0.648438 31.515625 -0.390625 C 31.253906 -0.128906 30.921875 0 30.515625 0 Z M 5.484375 0 "/></g></g></g><g fill="#367f2b" fill-opacity="1"><g transform="translate(686.419563, 51.80758)"><g><path d="M 18.25 0.5625 C 14.664062 0.5625 11.671875 0.0390625 9.265625 -1 C 6.859375 -2.050781 5.035156 -3.414062 3.796875 -5.09375 C 2.566406 -6.769531 1.914062 -8.5625 1.84375 -10.46875 C 1.84375 -10.800781 1.953125 -11.078125 2.171875 -11.296875 C 2.398438 -11.523438 2.679688 -11.640625 3.015625 -11.640625 L 9.0625 -11.640625 C 9.550781 -11.640625 9.925781 -11.546875 10.1875 -11.359375 C 10.445312 -11.171875 10.691406 -10.929688 10.921875 -10.640625 C 11.179688 -9.960938 11.597656 -9.328125 12.171875 -8.734375 C 12.753906 -8.140625 13.539062 -7.65625 14.53125 -7.28125 C 15.519531 -6.90625 16.757812 -6.71875 18.25 -6.71875 C 20.675781 -6.71875 22.492188 -7.109375 23.703125 -7.890625 C 24.921875 -8.671875 25.53125 -9.734375 25.53125 -11.078125 C 25.53125 -12.015625 25.203125 -12.78125 24.546875 -13.375 C 23.890625 -13.976562 22.863281 -14.519531 21.46875 -15 C 20.070312 -15.488281 18.21875 -15.992188 15.90625 -16.515625 C 13.101562 -17.148438 10.722656 -17.941406 8.765625 -18.890625 C 6.804688 -19.847656 5.332031 -21.082031 4.34375 -22.59375 C 3.351562 -24.101562 2.859375 -25.976562 2.859375 -28.21875 C 2.859375 -30.457031 3.472656 -32.441406 4.703125 -34.171875 C 5.929688 -35.910156 7.664062 -37.273438 9.90625 -38.265625 C 12.144531 -39.253906 14.816406 -39.75 17.921875 -39.75 C 20.421875 -39.75 22.628906 -39.410156 24.546875 -38.734375 C 26.472656 -38.066406 28.078125 -37.191406 29.359375 -36.109375 C 30.648438 -35.023438 31.628906 -33.867188 32.296875 -32.640625 C 32.972656 -31.410156 33.328125 -30.21875 33.359375 -29.0625 C 33.359375 -28.71875 33.253906 -28.425781 33.046875 -28.1875 C 32.847656 -27.945312 32.5625 -27.828125 32.1875 -27.828125 L 25.921875 -27.828125 C 25.546875 -27.828125 25.207031 -27.898438 24.90625 -28.046875 C 24.613281 -28.191406 24.351562 -28.453125 24.125 -28.828125 C 23.9375 -29.835938 23.289062 -30.695312 22.1875 -31.40625 C 21.09375 -32.113281 19.671875 -32.46875 17.921875 -32.46875 C 16.085938 -32.46875 14.640625 -32.140625 13.578125 -31.484375 C 12.515625 -30.835938 11.984375 -29.820312 11.984375 -28.4375 C 11.984375 -27.539062 12.257812 -26.785156 12.8125 -26.171875 C 13.375 -25.554688 14.289062 -25.015625 15.5625 -24.546875 C 16.832031 -24.078125 18.550781 -23.582031 20.71875 -23.0625 C 23.957031 -22.394531 26.601562 -21.582031 28.65625 -20.625 C 30.71875 -19.675781 32.234375 -18.460938 33.203125 -16.984375 C 34.171875 -15.515625 34.65625 -13.660156 34.65625 -11.421875 C 34.65625 -8.921875 33.960938 -6.773438 32.578125 -4.984375 C 31.203125 -3.191406 29.28125 -1.816406 26.8125 -0.859375 C 24.351562 0.0859375 21.5 0.5625 18.25 0.5625 Z M 18.25 0.5625 "/></g></g></g></g></g></svg>